<?xml version="1.0" encoding="UTF-8"?>
<svg version="1.1" xmlns="http://www.w3.org/2000/svg" width="433" height="433">
<path d="M0 0 C2.703125 1.34765625 2.703125 1.34765625 5.4375 3 C10.98574765 6.31637466 15.61285977 7.25682437 22 6 C24.01254782 4.68568305 26.01310269 3.35278115 28 2 C35.06330601 0.46668446 40.29818403 2.60483385 46.32421875 6.21875 C51.4863949 9.65517675 56.32627263 13.20380478 60.5625 17.75 C68.62136991 25.18895684 83.36762643 26.22677257 93.7734375 27.375 C98.24262615 28.2407024 101.78689109 29.6655802 104.875 33.0625 C106 35 106 35 106 37 C106.66 37 107.32 37 108 37 C108.38671875 37.95261719 108.7734375 38.90523437 109.171875 39.88671875 C109.69748878 41.15382341 110.22355455 42.42074065 110.75 43.6875 C111.00265625 44.31333984 111.2553125 44.93917969 111.515625 45.58398438 C113.84955249 51.15623626 116.59934535 55.36529924 121.6875 58.6875 C124.89952153 60.79904306 124.89952153 60.79904306 126 63 C126.59217451 68.4890022 126.07098004 72.86087912 123.55859375 77.78515625 C121.86263625 84.50968704 124.6990304 90.1060345 128 95.75 C131.90384413 102.58855214 131.90384413 102.58855214 132.50146484 105.14575195 C132.81454174 107.17161933 132.81454174 107.17161933 134.7890625 108.05859375 C135.51867187 108.36925781 136.24828125 108.67992187 137 109 C144.04318899 113.62289314 150.48858623 119.29934155 152.71875 127.7109375 C152.8115625 128.46632812 152.904375 129.22171875 153 130 C151.36421139 131.63578861 149.31596032 131.08075253 147.0625 131.125 C140.23312313 131.65854507 136.17842877 134.77233444 131 139 C130.25492187 139.37769531 129.50984375 139.75539062 128.7421875 140.14453125 C125.7708432 143.30907955 126.45730381 147.14995574 126.5625 151.3125 C126.5742627 152.20662598 126.58602539 153.10075195 126.59814453 154.02197266 C126.79287746 161.61928052 127.88427409 168.68230579 130 176 C130.30164063 177.09570312 130.60328125 178.19140625 130.9140625 179.3203125 C131.27242188 180.20460937 131.63078125 181.08890625 132 182 C136.23279457 183.41093152 140.5947928 183.66317747 145.01953125 184.07421875 C149.37317118 184.55255163 152.48764627 185.34236353 156 188 C157.42662219 190.85324437 157.31033868 192.83454549 157 196 C155.24847408 198.85433853 153.64072735 200.56656679 150.875 202.4375 C145.1504301 203.55752455 139.64655358 201.75105953 134.4375 199.375 C128.75738547 197.10295419 123.51886224 197.0772091 117.8125 199.375 C113.54451808 201.75830872 111.71227388 205.20670057 109.4296875 209.4140625 C108.09862251 211.82161722 106.66614699 213.94087985 105 216.125 C104.51144531 216.76695312 104.02289063 217.40890625 103.51953125 218.0703125 C102.47630544 219.39512883 101.40969493 220.70176127 100.32421875 221.9921875 C96.42185075 226.77934061 95.43093055 229.85923961 95 236 C94.34 236.33 93.68 236.66 93 237 C91.40519443 236.23029493 89.84711314 235.38363636 88.3125 234.5 C84.82787741 232.69986308 83.12806134 232.00413101 79.125 231.875 C75.34077554 233.2373208 74.06577813 234.58352078 72 238 C70.69707351 241.66138837 71.07257023 245.09453257 71.25 248.9375 C71.43135854 256.80116777 69.18402316 262.82647162 66 270 C62.17779042 279.03295623 61.67931292 289.32325341 63 299 C64.02558103 301.72612884 64.02558103 301.72612884 65.5 303.9375 C68.54924805 308.84583376 68.52992712 313.49447173 68.5625 319.125 C68.57667969 319.97312256 68.59085938 320.82124512 68.60546875 321.69506836 C68.46845921 330.46453546 64.9602186 336.72608569 59 343 C58.34 343 57.68 343 57 343 C57 343.66 57 344.32 57 345 C54.5037139 347.21751303 51.72230985 349.07026137 49 351 C47.948125 351.78375 46.89625 352.5675 45.8125 353.375 C42.67944128 355.1852117 41.53553008 355.39514748 38 355 C34.10342745 353.03132807 30.58398884 350.48664394 27 348 C26.2471875 347.48695313 25.494375 346.97390625 24.71875 346.4453125 C18.66686241 342.13916172 13.22947659 337.27354129 11 330 C10.7302791 327.11540592 10.57221081 324.38441459 10.5625 321.5 C10.55863281 320.70263428 10.55476562 319.90526855 10.55078125 319.08374023 C10.67391044 312.6970546 12.31883138 307.79246321 14.85546875 301.9296875 C17.38758482 295.44816173 17.06991546 290.24196762 14.33984375 283.8984375 C11.51386664 277.86584147 8.86501587 272.63491377 4 268 C4 267.34 4 266.68 4 266 C3.42507812 265.73316406 2.85015625 265.46632813 2.2578125 265.19140625 C-0.07702551 263.95935505 -2.03894184 262.55161725 -4.125 260.9375 C-9.99648586 256.40648544 -14.61365552 256.24457841 -22 257 C-27.91180073 258.67948884 -33.4995587 260.89961665 -38.625 264.3125 C-43.40894449 266.70447225 -47.74883174 266.3418482 -53 266 C-56.81471658 258.19664358 -58.3546669 249.73206567 -60.30664062 241.31445312 C-63.45547051 228.19315977 -67.22946565 221.711126 -77.875 213.25 C-88.56312473 204.46470388 -94.31750003 193.89412038 -99.56640625 181.24609375 C-101.00332279 177.99247619 -102.74532429 175.72116034 -105 173 C-105 172.34 -105 171.68 -105 171 C-105.7425 170.71125 -106.485 170.4225 -107.25 170.125 C-110 169 -110 169 -111.75390625 167.95703125 C-114.76616597 166.67354667 -117.42230452 166.68103845 -120.6875 166.5625 C-130.23544961 165.95895085 -136.208374 164.22367497 -143.46875 157.9140625 C-145.34628518 155.56714352 -145.77619195 153.9841073 -146 151 C-144.08190078 146.36459356 -143.35305902 144.69485913 -138.828125 142.37109375 C-133.84576358 140.39739212 -128.60705403 139.87808229 -123.328125 139.13671875 C-119.81949297 138.30368463 -119.81949297 138.30368463 -118.12109375 135.31640625 C-116.97995479 131.9407025 -116.3422107 128.77078393 -115.8125 125.25 C-114.29830307 117.6948708 -111.02123405 113.63514405 -106 108 C-99.97855953 100.76748033 -97.8237176 94.6542351 -98.421875 85.203125 C-98.98027148 80.09164957 -100.53904091 75.36938822 -102.19775391 70.52441406 C-104.63326048 63.38665664 -105.28548976 58.26350095 -102.3125 51.25 C-99.18098684 46.00674598 -94.60157887 45.23377181 -89.0390625 43.45703125 C-84.63397098 41.34507863 -83.52763226 38.57305541 -81.9296875 34.109375 C-81.46949219 33.06523438 -81.46949219 33.06523438 -81 32 C-77.67678306 30.89226102 -75.42379386 30.97470167 -71.93359375 31.11328125 C-70.12084961 31.1587207 -70.12084961 31.1587207 -68.27148438 31.20507812 C-65.74218897 31.27594478 -63.21336151 31.36666542 -60.68554688 31.47851562 C-52.01311581 31.64838325 -46.90746816 30.2073881 -40 25 C-38.83644541 24.22773471 -37.67129349 23.45786564 -36.50390625 22.69140625 C-30.17943756 18.52138213 -30.17943756 18.52138213 -26.3125 12.3125 C-24.32876091 7.30592039 -20.54292503 5.59371152 -16 3 C-15.030625 2.38125 -14.06125 1.7625 -13.0625 1.125 C-8.57762607 -0.52250471 -4.71307164 -0.87859283 0 0 Z " fill="#050505" transform="translate(234,72)"/>
<path d="M0 0 C4.18096931 1.70651808 4.83407942 4.11026909 6.796875 8.0234375 C9.06625672 12.01586831 12.10782865 13.69564239 16.4453125 14.92578125 C18.64491319 15.4325858 20.83718458 15.87416895 23.0625 16.25 C22.753125 17.384375 22.44375 18.51875 22.125 19.6875 C21.70635113 22.75396707 21.87029055 23.93875468 23.51953125 26.609375 C24.77308639 28.13100202 26.06541569 29.62170296 27.3984375 31.07421875 C29.26724094 33.51770118 29.54336693 35.26624488 30.0625 38.25 C32.03008273 39.61020151 32.03008273 39.61020151 34.0625 40.25 C34.0625 40.91 34.0625 41.57 34.0625 42.25 C31.7525 42.25 29.4425 42.25 27.0625 42.25 C26.7325 47.53 26.4025 52.81 26.0625 58.25 C21.0625 60.25 21.0625 60.25 18.0625 60.25 C17.98 61.466875 17.8975 62.68375 17.8125 63.9375 C17.25090023 68.09777196 16.45635381 70.53491695 13.0625 73.25 C10.01639726 73.6543964 7.1151002 73.54351925 4.0625 73.25 C3.4025 74.9 2.7425 76.55 2.0625 78.25 C-0.50156672 78.16262287 -3.06232216 78.05570881 -5.625 77.9375 C-6.34623047 77.91494141 -7.06746094 77.89238281 -7.81054688 77.86914062 C-12.40421485 77.63840844 -15.02645634 76.82358832 -18.9375 74.25 C-21.19729292 73.7951622 -21.19729292 73.7951622 -23.4375 73.75 C-27.43078259 73.58126975 -29.71940581 72.66718919 -32.9375 70.25 C-35.17503252 67.77013544 -37.15073746 65.12923249 -39.125 62.4375 C-39.92454102 61.38852539 -39.92454102 61.38852539 -40.74023438 60.31835938 C-46.69240013 52.31475536 -48.40959425 44.22985293 -47.9375 34.25 C-46.74966037 30.54961069 -45.03337722 27.50477404 -42.9375 24.25 C-42.4425 23.239375 -41.9475 22.22875 -41.4375 21.1875 C-39.9375 19.25 -39.9375 19.25 -37.25 18.4375 C-36.486875 18.375625 -35.72375 18.31375 -34.9375 18.25 C-34.7725 17.425 -34.6075 16.6 -34.4375 15.75 C-32.33128153 10.83549023 -28.83512801 7.82131497 -24.9375 4.25 C-23.885625 4.765625 -22.83375 5.28125 -21.75 5.8125 C-18.37246632 7.24354339 -16.48294163 7.52272264 -12.9375 6.25 C-9.93630173 4.90252323 -7.41778511 3.67024947 -4.9375 1.5 C-2.9375 0.25 -2.9375 0.25 0 0 Z " fill="#080808" transform="translate(61.9375,262.75)"/>
<path d="M0 0 C2.78515625 0.8359375 2.78515625 0.8359375 5.22265625 3.8359375 C5.73828125 4.8259375 6.25390625 5.8159375 6.78515625 6.8359375 C9.86076871 8.19574631 9.86076871 8.19574631 12.78515625 8.8359375 C15.21604627 11.26682752 14.41087418 17.12660332 14.59765625 20.3984375 C14.67435547 21.37619141 14.75105469 22.35394531 14.83007812 23.36132812 C15.18505121 29.74656687 14.75562911 34.63626072 10.78515625 39.8359375 C8.34765625 41.7890625 8.34765625 41.7890625 5.78515625 43.0859375 C2.94291322 44.55905126 0.88452686 45.7358507 -1.3828125 48.01953125 C-1.98738281 48.61894531 -2.59195313 49.21835937 -3.21484375 49.8359375 C-5.52734375 49.6484375 -5.52734375 49.6484375 -8.21484375 48.8359375 C-13.09872036 47.8766046 -15.69829272 47.81741041 -20.21484375 49.8359375 C-22.48195963 47.68661741 -24.72496388 45.51359849 -26.96484375 43.3359375 C-27.5990625 42.73523437 -28.23328125 42.13453125 -28.88671875 41.515625 C-34.18542098 36.3273124 -38.18888594 31.05583922 -38.71484375 23.4609375 C-38.3992644 16.71688982 -35.66745678 9.91385696 -31.21484375 4.8359375 C-29.27734375 3.640625 -29.27734375 3.640625 -27.21484375 2.7109375 C-17.48470156 -1.748711 -10.90069946 -1.75941114 0 0 Z " fill="#0F0F0F" transform="translate(308.21484375,10.1640625)"/>
<path d="M0 0 C3.22313813 2.80724934 4.64998321 4.68312622 5 9 C4 10 4 10 1.71484375 10.09765625 C0.34005859 10.08025391 0.34005859 10.08025391 -1.0625 10.0625 C-1.98160156 10.05347656 -2.90070313 10.04445312 -3.84765625 10.03515625 C-4.55792969 10.02355469 -5.26820313 10.01195312 -6 10 C-2.5647952 7.70986347 -1.014669 7.82157027 3 8 C2.505 7.05125 2.01 6.1025 1.5 5.125 C0 2 0 2 0 0 Z " fill="#CECECE" transform="translate(382,193)"/>
</svg>
