<?xml version="1.0" encoding="UTF-8"?>
<svg version="1.1" xmlns="http://www.w3.org/2000/svg" width="311" height="311">
<path d="M0 0 C2 0.9375 2 0.9375 3.25 4 C3.4975 4.969375 3.745 5.93875 4 6.9375 C4.6084375 6.8653125 5.216875 6.793125 5.84375 6.71875 C14.24499332 5.82920659 22.56729971 5.77018452 31 5.9375 C32.11375 5.94265625 33.2275 5.9478125 34.375 5.953125 C43.31174834 6.27229458 48.66147822 9.6798371 55.0625 15.6875 C57 17.9375 57 17.9375 57 19.9375 C57.66 19.9375 58.32 19.9375 59 19.9375 C59.928125 20.989375 59.928125 20.989375 60.875 22.0625 C63.47458171 24.79244421 66.29908752 26.19441343 69.6875 27.8125 C78.58332637 32.08641169 93.47591211 39.88932422 98 48.9375 C98.27065449 51.18510899 98.5164146 53.43573672 98.75 55.6875 C99.36128391 61.03097551 100.46524515 65.50164334 102.5625 70.5 C105.37420006 77.66372275 105.42659115 84.32643252 105.54492188 91.96069336 C105.72103821 98.48207819 106.87536531 103.22522214 109.84301758 109.09545898 C113.73825921 118.66382948 109.94096063 128.99352458 106.8125 138.25 C106.42513672 139.47267578 106.03777344 140.69535156 105.63867188 141.95507812 C102.6365258 151.0905342 99.84640225 157.74068773 91.3125 162.875 C90.35988281 163.46152344 89.40726563 164.04804688 88.42578125 164.65234375 C86 165.9375 86 165.9375 84 165.9375 C84 166.5975 84 167.2575 84 167.9375 C83.34 167.9375 82.68 167.9375 82 167.9375 C81.731875 168.824375 81.46375 169.71125 81.1875 170.625 C79.03147756 176.63916786 76.93738263 179.3653064 71.25 182.375 C67.60108009 184.39243168 64.32583439 186.30548514 61.25 189.125 C56.65419043 193.29897198 51.5181372 195.51758321 45.625 197.3125 C41.96623203 198.44167149 39.0876793 200.04649385 35.875 202.125 C31.65209633 204.72120734 29.04136873 206.03743499 24 204.9375 C22.60002962 203.97276794 21.22715477 202.96818059 19.875 201.9375 C14.26652857 197.79675679 8.70463602 198.37791678 2 198.9375 C1.01 200.9175 0.02 202.8975 -1 204.9375 C-4.36470127 204.52965742 -6.63275554 203.62000199 -9.4375 201.8125 C-12.14676724 200.18693965 -12.87016939 199.9324086 -16.1875 200.0625 C-18.96599221 200.77803943 -18.96599221 200.77803943 -20.9375 202.25 C-21.618125 202.476875 -22.29875 202.70375 -23 202.9375 C-24.75619693 201.96183504 -26.50972074 200.97718644 -28.20703125 199.90234375 C-32.48119028 197.6023061 -37.45583468 199.0719447 -42 199.9375 C-42.27972656 199.36902344 -42.55945313 198.80054688 -42.84765625 198.21484375 C-45.96338571 192.21380855 -49.75179429 186.06160285 -56 182.9375 C-58.2072923 182.86657158 -60.41667452 182.85334975 -62.625 182.875 C-63.81351563 182.88402344 -65.00203125 182.89304687 -66.2265625 182.90234375 C-67.59941406 182.91974609 -67.59941406 182.91974609 -69 182.9375 C-68.39230236 179.59516297 -68.02744841 178.96298781 -65.375 176.5 C-64.59125 175.654375 -63.8075 174.80875 -63 173.9375 C-63.31665728 170.24722478 -64.61881339 167.46967546 -66.375 164.25 C-68.60539271 159.95585311 -70.03753784 155.77678996 -71.30859375 151.12109375 C-71.96267085 148.75020537 -71.96267085 148.75020537 -73.6875 146.1875 C-75 143.9375 -75 143.9375 -74.90625 141.15625 C-75.01562886 137.40090912 -75.96945842 135.43412312 -77.8125 132.1875 C-78.33457031 131.24390625 -78.85664062 130.3003125 -79.39453125 129.328125 C-80.93568318 126.70485902 -80.93568318 126.70485902 -84 124.9375 C-83.625 123 -83.625 123 -83 120.9375 C-82.01 120.4425 -82.01 120.4425 -81 119.9375 C-81.14417358 119.05735229 -81.14417358 119.05735229 -81.29125977 118.15942383 C-83.0374048 107.18502478 -84.3815277 96.44124079 -83.875 85.3125 C-83.84092041 84.44343018 -83.80684082 83.57436035 -83.77172852 82.67895508 C-83.32856539 75.60164695 -81.10317669 71.90160254 -76.125 66.875 C-72.90200339 63.36486369 -71.14319204 60.27818177 -69.5 55.8125 C-67.53434386 50.58398704 -65.36387268 47.96111429 -60.984375 44.5859375 C-58.25539723 42.31895203 -56.40491639 39.64763145 -54.36328125 36.76953125 C-53 34.9375 -53 34.9375 -50.5 32.5 C-47.99743343 30.17901931 -47.99743343 30.17901931 -46.8828125 27.80859375 C-44.24627021 22.83846588 -42.03702947 20.57522686 -36.57641602 18.78076172 C-34.58283333 18.19348982 -32.58484399 17.62353252 -30.5859375 17.0546875 C-24.9642366 15.30326434 -21.30681846 12.89772769 -18 7.9375 C-14.9609375 7.42578125 -14.9609375 7.42578125 -11.375 7.25 C-10.18648438 7.18425781 -8.99796875 7.11851563 -7.7734375 7.05078125 C-6.40058594 6.99470703 -6.40058594 6.99470703 -5 6.9375 C-4.814375 5.4834375 -4.814375 5.4834375 -4.625 4 C-4.41875 2.989375 -4.2125 1.97875 -4 0.9375 C-2 -0.0625 -2 -0.0625 0 0 Z " fill="#040404" transform="translate(162,84.0625)"/>
<path d="M0 0 C2.96328211 4.44492316 1.9020194 8.54341311 1.58203125 13.75 C1.71996094 14.8225 1.85789063 15.895 2 17 C4.38254907 19.00530719 4.38254907 19.00530719 7 20 C7.185625 18.88625 7.185625 18.88625 7.375 17.75 C8.41477308 13.17499846 9.16665431 11.61225398 13.0625 8.75 C17.3686039 6.52116775 21.24982264 5.95766628 26 7 C35.36709734 11.38163396 40.78254214 18.34177221 44.23828125 27.86328125 C44.48964844 28.56839844 44.74101562 29.27351563 45 30 C45.33 30.66 45.66 31.32 46 32 C46.039992 33.99960012 46.04346799 36.00047242 46 38 C42.875 38.75 42.875 38.75 39 39 C38.09121094 38.38125 37.18242187 37.7625 36.24609375 37.125 C32.62369177 34.75365622 29.38066181 33.92739531 25.1875 33.25 C24.48625 33.12713623 23.785 33.00427246 23.0625 32.87768555 C17.96209338 32.03213524 13.15181622 31.72400985 8 32 C8 33.65 8 35.3 8 37 C8.66 37 9.32 37 10 37 C10 37.66 10 38.32 10 39 C11.32 39.66 12.64 40.32 14 41 C14 41.99 14 42.98 14 44 C13.443125 44.12632813 12.88625 44.25265625 12.3125 44.3828125 C4.48321042 46.89559125 1.99351191 52.16394858 -1.56640625 59.078125 C-2.03949219 60.04234375 -2.51257813 61.0065625 -3 62 C-12.21065696 62.16382591 -12.21065696 62.16382591 -16.3125 61.3125 C-19.07382113 60.71306349 -19.07382113 60.71306349 -21.375 62.4375 C-24.96498045 64.57439312 -27.9860751 64.73178053 -32 64 C-39.30396181 61.50821519 -43.73387695 56.34538943 -48.54296875 50.5234375 C-51.19920318 47.79541295 -53.6070866 46.6634517 -57 45 C-60.14286808 42.40625541 -61.80111173 40.91388447 -62.67871094 36.88134766 C-62.73898052 33.12718702 -62.77956453 29.37969486 -62.75 25.625 C-62.78609375 24.32304688 -62.8221875 23.02109375 -62.859375 21.6796875 C-62.859375 11.00245836 -62.859375 11.00245836 -58.890625 6.8359375 C-56.96264648 5.30786133 -56.96264648 5.30786133 -55 4 C-54.43547119 3.57807373 -53.87094238 3.15614746 -53.28930664 2.72143555 C-48.68007823 -0.36906385 -44.52097099 -0.54555579 -39.1875 -0.5625 C-34.0752349 -0.69367642 -29.540198 -0.84514531 -24.6875 -2.625 C-16.71958302 -5.43720599 -7.26638362 -4.19835498 0 0 Z " fill="#0C0C0C" transform="translate(131,10)"/>
<path d="M0 0 C0.74701172 -0.02900391 1.49402344 -0.05800781 2.26367188 -0.08789062 C7.59080312 -0.14869195 10.3882615 0.92346064 14.6875 4.3125 C15.450625 4.68375 16.21375 5.055 17 5.4375 C18.6875 6.3125 18.6875 6.3125 19.6875 8.3125 C19.727492 10.31210012 19.73096799 12.31297242 19.6875 14.3125 C21.3375 13.9825 22.9875 13.6525 24.6875 13.3125 C26.67400232 19.3823682 23.84734844 24.93301712 21.171875 30.421875 C17.37315625 37.30063599 13.49782043 43.70905986 5.6875 46.3125 C3.5225098 46.40735782 1.35456177 46.44238077 -0.8125 46.4375 C-1.9571875 46.44007813 -3.101875 46.44265625 -4.28125 46.4453125 C-7.3125 46.3125 -7.3125 46.3125 -10.3125 45.3125 C-10.250625 46.405625 -10.18875 47.49875 -10.125 48.625 C-10.3125 52.3125 -10.3125 52.3125 -11.5 54.3125 C-13.3125 55.3125 -13.3125 55.3125 -15.5 55.375 C-22.18050381 52.85125412 -26.249502 49.20123682 -29.375 42.75 C-31.13150628 38.79365199 -31.51519465 36.49545688 -30.3125 32.3125 C-28.3325 32.3125 -26.3525 32.3125 -24.3125 32.3125 C-24.828125 31.260625 -25.34375 30.20875 -25.875 29.125 C-27.32873124 25.68953136 -27.43657502 23.94412698 -26.3125 20.3125 C-26.24417969 19.631875 -26.17585938 18.95125 -26.10546875 18.25 C-25.62270436 14.43937973 -25.061276 12.07595788 -22.3203125 9.28125 C-20.04033306 7.51706919 -17.71932275 5.89788154 -15.3125 4.3125 C-14.61898437 3.77367187 -13.92546875 3.23484375 -13.2109375 2.6796875 C-9.16044018 -0.23733732 -4.78708114 0.06100783 0 0 Z " fill="#0E0E0E" transform="translate(52.3125,251.6875)"/>
<path d="M0 0 C2.67836784 1.99787047 4.58993281 4.14801018 6.7109375 6.7265625 C13.75218258 14.66668993 21.24714729 16.47626443 31.30078125 18.95703125 C34.3984375 19.7890625 34.3984375 19.7890625 35.3984375 20.7890625 C35.1484375 24.2265625 35.1484375 24.2265625 34.3984375 27.7890625 C30.6499325 30.28806583 27.73831513 30.30499201 23.3984375 29.7890625 C21.1462827 29.12475785 18.9652702 28.33050192 16.7578125 27.53125 C9.79336936 25.34044835 4.31859326 25.68830093 -2.6015625 27.7890625 C-10.37778837 28.84525617 -16.08284549 27.07143134 -22.6015625 22.7890625 C-25.39815984 20.45856472 -26.36092949 19.0502373 -27.0390625 15.49609375 C-27.382706 10.76383639 -26.97105022 7.55581284 -23.9765625 3.7890625 C-18.03385618 -2.05734997 -7.61435995 -3.5442216 0 0 Z " fill="#191919" transform="translate(228.6015625,35.2109375)"/>
<path d="M0 0 C2 2 2 2 2.125 5.125 C2.08375 6.07375 2.0425 7.0225 2 8 C3.65 7.67 5.3 7.34 7 7 C8.25127906 10.54667178 7.72285053 12.72253438 6.5625 16.25 C6.27503906 17.14203125 5.98757812 18.0340625 5.69140625 18.953125 C5.46324219 19.62859375 5.23507813 20.3040625 5 21 C4 18 4 18 3.5625 16.0625 C3.08221683 13.98088455 3.08221683 13.98088455 2.00390625 12.19921875 C0.83929063 9.64794018 0.59513633 7.53839349 0.375 4.75 C0.30023438 3.85796875 0.22546875 2.9659375 0.1484375 2.046875 C0.09945312 1.37140625 0.05046875 0.6959375 0 0 Z " fill="#C2C2C2" transform="translate(70,258)"/>
<path d="M0 0 C-1.62073878 1.62073878 -3.579555 1.19807383 -5.8125 1.3125 C-9.44913759 1.62465773 -10.68349348 1.75131631 -13.625 4.0625 C-14.07875 4.701875 -14.5325 5.34125 -15 6 C-15.66 5.67 -16.32 5.34 -17 5 C-15.6875 2.5625 -15.6875 2.5625 -13 0 C-8.82243661 -0.93177559 -3.93587747 -1.96793873 0 0 Z " fill="#5B5B5B" transform="translate(157,92)"/>
<path d="M0 0 C0.66 0 1.32 0 2 0 C1.01 3.3 0.02 6.6 -1 10 C-1.33 10 -1.66 10 -2 10 C-1.85950482 8.52031676 -1.71245174 7.04125484 -1.5625 5.5625 C-1.48128906 4.73878906 -1.40007813 3.91507812 -1.31640625 3.06640625 C-1 1 -1 1 0 0 Z " fill="#B7B7B7" transform="translate(29,262)"/>
<path d="M0 0 C0.99 0.33 1.98 0.66 3 1 C0.03 3.475 0.03 3.475 -3 6 C-2.42655063 3.13275314 -2.1385485 2.1385485 0 0 Z " fill="#404040" transform="translate(76,14)"/>
</svg>
