<?xml version="1.0" encoding="UTF-8"?>
<svg version="1.1" xmlns="http://www.w3.org/2000/svg" width="429" height="429">
<path d="M0 0 C4.47911606 1.0416549 7.12707256 2.51675985 9.96484375 6.203125 C11.76229395 9.32322724 12.3320366 12.47801117 13 16 C13.99 16 14.98 16 16 16 C15.938125 14.741875 15.87625 13.48375 15.8125 12.1875 C15.8055856 8.27394757 15.8055856 8.27394757 17.375 6.0625 C21.67064757 3.25380736 25.99371829 3.43923143 31 4 C34.22909376 6.03942764 35.26230008 8.51730557 36.8125 11.875 C38.85786359 16.18400709 41.7140042 19.75361185 46 22 C48.132752 21.90311123 48.132752 21.90311123 50 21 C53.13957977 16.35342193 54.06537438 11.00812993 55.25390625 5.609375 C56 3 56 3 58 1 C62.05261287 0.65509678 63.54754176 0.69836118 67 3 C67.1953125 5.828125 67.1953125 5.828125 67.125 9.25 C67.32089034 14.15990503 67.32089034 14.15990503 69.8828125 18.15625 C73.82292997 20.80900236 77.30601703 22.23431484 82 23 C82.52400391 22.15115234 82.52400391 22.15115234 83.05859375 21.28515625 C83.51363281 20.55167969 83.96867188 19.81820312 84.4375 19.0625 C84.88996094 18.33160156 85.34242188 17.60070312 85.80859375 16.84765625 C87 15 87 15 88 14 C90.4375 13.75 90.4375 13.75 93 14 C95.63066423 17.94599634 94.99999139 21.0438537 94.625 25.5625 C94.51287751 27.10545834 94.40089191 28.64842664 94.2890625 30.19140625 C94.19367188 31.44824219 94.09828125 32.70507812 94 34 C94 34.66 94 35.32 94 36 C94.825 36.2475 95.65 36.495 96.5 36.75 C99.20706437 37.7168087 101.48294572 38.73136552 104 40.0625 C107.31383664 41.77677319 110.25358926 42.62535893 114 43 C114.37125 41.88625 114.37125 41.88625 114.75 40.75 C116.1639416 37.63932847 117.2343655 36.01816571 120 34 C123.625 33.625 123.625 33.625 127 34 C129 36 129 36 129.5625 39.0625 C128.94013204 43.41907573 128.15510765 44.22940123 125.3125 47.375 C122.62835347 50.47458149 122.62835347 50.47458149 121.95703125 54.36328125 C123.67042566 60.32509222 127.28974047 63.22305496 132 67 C131.9388501 65.98631348 131.9388501 65.98631348 131.87646484 64.95214844 C131.69789059 61.88530682 131.53627015 58.81779817 131.375 55.75 C131.31054688 54.68652344 131.24609375 53.62304688 131.1796875 52.52734375 C131.128125 51.50253906 131.0765625 50.47773437 131.0234375 49.421875 C130.97106934 48.47924805 130.91870117 47.53662109 130.86474609 46.56542969 C131.0096705 43.81657464 131.68654337 42.37721146 133 40 C133.30053377 36.54386166 133.07895059 34.22756347 131.9375 30.9375 C130.92385237 27.76140409 131.07297172 26.15189614 132 23 C134.68359375 22.84375 134.68359375 22.84375 138 24 C140.20765734 27.26564264 141.59027056 30.85582123 143.0625 34.5 C143.88299584 36.44948774 144.70718371 38.39742593 145.53515625 40.34375 C145.93790771 41.29773682 146.34065918 42.25172363 146.75561523 43.23461914 C148.27908172 46.62019985 150.06726658 49.79973704 151.91333008 53.01708984 C153.33513661 55.61154337 154.35679379 58.26617442 155.3125 61.0625 C155.63863281 62.00222656 155.96476563 62.94195312 156.30078125 63.91015625 C156.53152344 64.59980469 156.76226562 65.28945312 157 66 C159.80045046 66.85650653 159.80045046 66.85650653 163 67 C165.60605312 65.00713585 166.9299403 63.12844279 168.5 60.25 C172.1543598 56.96107618 175.27462702 57.86257318 180.01953125 58.09375 C184.32215272 57.95841197 186.44103087 56.29850089 190 54 C192.1875 53.875 192.1875 53.875 194 55 C197.68502804 60.07560467 200.31450997 65.51704538 203 71.16601562 C204.95877813 75.1945183 207.02782818 78.59659789 210 82 C215.76746964 80.65133315 221.02243272 79.14342874 226.25 76.3125 C230.34195881 74.15917986 233.30112585 73.23283687 238 74 C239.9375 75.125 239.9375 75.125 241 77 C241.59785455 80.84335068 241.19889794 82.63903708 239.3125 86.0625 C237 89 237 89 234.25 91.375 C231.85999425 94.16334005 231.66285987 94.66713198 231.625 98.125 C231.84558277 101.90904191 231.84558277 101.90904191 233 105 C235.49759982 106.69882448 235.49759982 106.69882448 238 108 C242.70268007 105.12080812 245.52798686 102.50805131 248.5625 97.875 C251.26776477 93.82614049 253.15737384 91.41243263 258 90 C261.875 89.8125 261.875 89.8125 265 90 C265.33 91.65 265.66 93.3 266 95 C263.88278695 96.72513656 262.2697912 97.92190255 259.625 98.6875 C254.10398378 101.44800811 250.05011491 108.33203525 248 114 C248 120.11235593 250.59118642 125.05137966 254 130 C256.43387753 131.21693876 258.41838846 131.31959896 261.125 131.5625 C262.03507812 131.64628906 262.94515625 131.73007813 263.8828125 131.81640625 C264.58148438 131.87699219 265.28015625 131.93757812 266 132 C265.53243854 135.27293019 265.10573142 137.7977312 263.5625 140.75 C262.73781864 145.51482561 264.95480213 147.9994568 267.51953125 151.92578125 C268.83660294 153.89151977 268.83660294 153.89151977 270 155 C271.99612093 155 273.99236617 154.99741664 275.98828125 154.96875 C278.12332452 155.00191572 279.97358321 155.32452774 282 156 C282 157.65 282 159.3 282 161 C279.36 161.33 276.72 161.66 274 162 C273.34 165.3 272.68 168.6 272 172 C267 173.66666667 262 175.33333333 257 177 C255.89163577 178.88316159 255.89163577 178.88316159 255 181 C254.34 181.99 253.68 182.98 253 184 C252.47556433 190.08345377 253.14472935 195.52650003 256 201 C259.28140131 204.05246634 261.83247747 205.12219441 266.1875 205.5625 C270 206 270 206 272 207.125 C273.5556622 210.04186663 273.18304063 212.76628217 273 216 C271.2109375 216.6484375 271.2109375 216.6484375 269 217 C267.2890625 216.0390625 267.2890625 216.0390625 265.625 214.625 C260.37294036 210.59097121 255.44448503 210.97720111 249 211 C249.01047363 211.62044189 249.02094727 212.24088379 249.03173828 212.88012695 C249.07330886 215.69087677 249.09932933 218.5015619 249.125 221.3125 C249.14175781 222.28896484 249.15851563 223.26542969 249.17578125 224.27148438 C249.18222656 225.20927734 249.18867188 226.14707031 249.1953125 227.11328125 C249.20578613 227.97735596 249.21625977 228.84143066 249.22705078 229.73168945 C249 232 249 232 247 235 C241.49003522 235.6237696 239.96194367 234.9771662 235 232 C235 236.62 235 241.24 235 246 C231.04 246.99 227.08 247.98 223 249 C222.731875 250.8975 222.46375 252.795 222.1875 254.75 C221.12180359 262.29185155 221.12180359 262.29185155 218 265 C215.37511355 265.39035197 213.24076034 265.52100784 210.625 265.4375 C209.92052734 265.4271875 209.21605469 265.416875 208.49023438 265.40625 C201.74939018 265.19995954 195.4821714 263.86473424 189 262 C188.896875 262.928125 188.79375 263.85625 188.6875 264.8125 C187.73333333 269.23636364 187.73333333 269.23636364 185 271 C182.51953125 271.29296875 182.51953125 271.29296875 179.8125 271.1875 C178.91144531 271.16042969 178.01039063 271.13335937 177.08203125 271.10546875 C176.05142578 271.05326172 176.05142578 271.05326172 175 271 C175.12568359 272.48113281 175.12568359 272.48113281 175.25390625 273.9921875 C175.35574219 275.27351563 175.45757812 276.55484375 175.5625 277.875 C175.66691406 279.15117187 175.77132813 280.42734375 175.87890625 281.7421875 C176 285 176 285 175 287 C173.02 287 171.04 287 169 287 C168.01 281.39 167.02 275.78 166 270 C164.02 270 162.04 270 160 270 C159.34 274.29 158.68 278.58 158 283 C155 283 155 283 152.9375 281.125 C150.33914903 276.93411134 149.71257274 272.82861794 149 268 C142.89995141 267.51246346 142.89995141 267.51246346 137.25 269.5 C134.79608615 272.22657094 132.94785115 275.02813971 131.11328125 278.1953125 C130 280 130 280 128 282 C125.375 282.125 125.375 282.125 123 282 C121.47692441 279.04438128 120.84643043 277.60456985 121.6796875 274.32421875 C122.07414063 273.45410156 122.46859375 272.58398438 122.875 271.6875 C123.26429688 270.80449219 123.65359375 269.92148437 124.0546875 269.01171875 C124.52261719 268.01591797 124.52261719 268.01591797 125 267 C122.03 267.33 119.06 267.66 116 268 C115.67 267.01 115.34 266.02 115 265 C116.27126684 262.58897668 117.57570511 260.3125083 119 258 C119.6802367 256.67353844 120.35492261 255.34391123 121 254 C117.78817851 252.09391902 115.46117397 251.77733753 111.75 251.875 C110.85796875 251.89304687 109.9659375 251.91109375 109.046875 251.9296875 C108.37140625 251.95289063 107.6959375 251.97609375 107 252 C106.86722656 252.71027344 106.73445312 253.42054688 106.59765625 254.15234375 C106.42105469 255.07144531 106.24445313 255.99054688 106.0625 256.9375 C105.88847656 257.85402344 105.71445313 258.77054687 105.53515625 259.71484375 C105 262 105 262 104 263 C101.83287978 262.94981406 99.6813125 262.80289001 97.51953125 262.64453125 C94.78004531 262.83358006 94.78004531 262.83358006 92.2109375 264.98828125 C88.16637719 267.52228193 85.46127901 267.53781438 80.8125 267.375 C80.10158203 267.37371094 79.39066406 267.37242187 78.65820312 267.37109375 C74.9273002 267.3079176 73.17077972 267.11385315 70 265 C68.24606973 265.08657936 66.49493548 265.24009808 64.75 265.4375 C59.62169816 265.57938977 59.62169816 265.57938977 56.93359375 263.07421875 C55.1875 260.625 55.1875 260.625 53.73046875 258.1640625 C49.84282461 253.3023134 42.64435169 253.36386236 36.8125 252.6875 C36.00619141 252.57599609 35.19988281 252.46449219 34.36914062 252.34960938 C33.20608398 252.21329102 33.20608398 252.21329102 32.01953125 252.07421875 C31.31932861 251.98744873 30.61912598 251.90067871 29.89770508 251.8112793 C27.88625103 251.83494266 27.88625103 251.83494266 26.31738281 253.37207031 C24.85204518 255.18283223 23.91308871 256.94938276 22.9375 259.0625 C21.77100702 261.57818969 20.98948974 263.01051026 19 265 C15.46428571 264.46428571 15.46428571 264.46428571 14 263 C13.58742352 257.01764103 14.32598412 253.34803176 17 248 C14.26570422 247.08856807 12.82646087 246.69786108 10 247 C7.06960451 248.61764606 4.43373642 250.44029128 1.74609375 252.43359375 C-1.43509185 254.24818184 -3.39648619 254.30161569 -7 254 C-7.34145336 250.32937634 -7.30049843 248.47857157 -5.3125 245.3125 C-3.01963194 243.01963194 -0.85814932 241.5084677 2 240 C1.41873091 236.2000618 -0.26988038 234.19593976 -2.8125 231.375 C-3.49957031 230.59898437 -4.18664062 229.82296875 -4.89453125 229.0234375 C-11.48435363 222.69036145 -23.90299635 221.91121401 -32.75 221.5625 C-41.43378438 221.86060006 -49.06001936 225.50268842 -56.75 229.25 C-61.88722545 231.71042807 -65.35666192 232.66392213 -71 232 C-70.23912594 227.24453712 -69.28747657 224.80522532 -65.4375 221.8125 C-61.91251825 219.41170162 -58.29517669 217.62572798 -54.359375 216.00390625 C-51.79337622 214.91208226 -49.34906116 213.66076209 -46.875 212.375 C-42.95756475 210.38567741 -39.26755297 209.0205018 -35 208 C-34.7638041 201.59646678 -35.176679 196.15370839 -37 190 C-38.0725 190.226875 -39.145 190.45375 -40.25 190.6875 C-44 191 -44 191 -46.4375 189.5625 C-46.953125 189.046875 -47.46875 188.53125 -48 188 C-47.56878732 184.98151123 -47.05446182 183.08378742 -45.375 180.5 C-43.78414056 178.08305797 -43.78414056 178.08305797 -44 175.3125 C-44.81540956 172.82821106 -44.81540956 172.82821106 -47.1875 171.625 C-50.51133762 170.88636942 -52.71667772 171.14348114 -56 172 C-57.485 172.99 -57.485 172.99 -59 174 C-61.72729492 174.31884766 -61.72729492 174.31884766 -64.98046875 174.4140625 C-66.14384766 174.45273438 -67.30722656 174.49140625 -68.50585938 174.53125 C-69.72080078 174.5621875 -70.93574219 174.593125 -72.1875 174.625 C-73.41404297 174.66367188 -74.64058594 174.70234375 -75.90429688 174.7421875 C-78.93604656 174.83656103 -81.96778841 174.92214549 -85 175 C-85.125 172.625 -85.125 172.625 -85 170 C-82.47756861 167.47756861 -81.23360922 167.60915448 -77.73046875 167.24609375 C-76.14975586 167.0459668 -76.14975586 167.0459668 -74.53710938 166.84179688 C-72.31869271 166.57403463 -70.09707654 166.33147768 -67.87304688 166.11523438 C-61.88154307 165.4411324 -61.88154307 165.4411324 -57.22900391 161.98095703 C-55.89849336 159.64749014 -55.89849336 159.64749014 -54.95825195 157.27368164 C-54 155 -54 155 -52.37963867 152.96264648 C-50.61661339 150.85444154 -50.61661339 150.85444154 -51 147 C-56.3268938 145.7792535 -59.09213639 146.22036967 -64.06640625 148.36328125 C-66.90334197 149.29746412 -69.17380103 148.77720472 -72 148 C-72.33 147.01 -72.66 146.02 -73 145 C-70.81668044 142.64873278 -68.93607402 140.96386792 -66.125 139.375 C-61.7270252 136.03253915 -59.56542044 131.82175407 -57 127 C-56.62230469 126.32839844 -56.24460937 125.65679687 -55.85546875 124.96484375 C-54.28927766 121.36761032 -54.3764744 117.8302287 -55 114 C-57.14064884 110.48321977 -58.9717687 109.30486642 -62.8984375 108.140625 C-65.00808467 107.64003076 -67.12848664 107.18231055 -69.2578125 106.7734375 C-72.1298536 105.96337462 -73.28809621 105.4117023 -75 103 C-75.66932271 96.86454183 -75.66932271 96.86454183 -73.5 94.0625 C-71.14954209 90.83062037 -71.80371707 87.92565852 -72 84 C-67.545 83.01 -67.545 83.01 -63 82 C-62.87939209 80.98631348 -62.87939209 80.98631348 -62.75634766 79.95214844 C-62.38690035 76.88378581 -62.00607725 73.81693901 -61.625 70.75 C-61.43550781 69.15478516 -61.43550781 69.15478516 -61.2421875 67.52734375 C-61.11328125 66.50253906 -60.984375 65.47773437 -60.8515625 64.421875 C-60.73635254 63.47924805 -60.62114258 62.53662109 -60.50244141 61.56542969 C-59.79085206 57.93210564 -58.95957616 55.69787357 -55.9375 53.5 C-53.54304136 51.64622557 -53.5063193 50.93863751 -53 48 C-52.8124105 44.69842485 -52.68413425 41.39879548 -52.57421875 38.09375 C-51.89471426 34.43274619 -50.93096422 33.23031401 -48 31 C-45.0625 30.4375 -45.0625 30.4375 -42 31 C-36.88019086 34.83985685 -34.10599956 40.50312792 -31 46 C-28.525 45.505 -28.525 45.505 -26 45 C-26 44.34 -26 43.68 -26 43 C-23.66237501 40.53250695 -21.25833239 38.22342261 -18.6875 36 C-16.79814314 34.12757705 -16.79814314 34.12757705 -16.6953125 31.625 C-17.06939243 28.40215749 -17.97921829 27.33541094 -20.1875 25 C-20.82171875 24.31292969 -21.4559375 23.62585938 -22.109375 22.91796875 C-23.67074706 21.33401487 -25.29651849 19.81382351 -26.9375 18.3125 C-29 16 -29 16 -29.4375 13.3125 C-29 11 -29 11 -27 9 C-24.625 8.5625 -24.625 8.5625 -22 9 C-20.65576661 10.65788785 -19.32381517 12.32576317 -18 14 C-12.74787751 16.92906831 -8.84301324 17.30752701 -3 17 C-3.185625 16.175 -3.37125 15.35 -3.5625 14.5 C-4.09048272 10.27613827 -3.82299597 7.18356286 -3 3 C-1.4375 1 -1.4375 1 0 0 Z " fill="#060606" transform="translate(122,55)"/>
<path d="M0 0 C1 3 1 3 0.3203125 4.98046875 C-2.70338749 10.56344423 -6.20201532 14.34933374 -11.109375 18.37109375 C-13.09633191 19.87123996 -13.09633191 19.87123996 -14 22 C-12.54096742 21.69078116 -11.08279278 21.37751201 -9.625 21.0625 C-8.81289063 20.88847656 -8.00078125 20.71445313 -7.1640625 20.53515625 C-4.970537 20.07669307 -4.970537 20.07669307 -3 19 C3.47058824 18.64705882 3.47058824 18.64705882 7 21 C7.55735507 24.06545291 7.61002886 26.06377515 5.875 28.7265625 C4.64330132 30.20320126 3.3261378 31.60755531 2 33 C2 30 2 30 3.5 28.0625 C5.39211447 25.88588856 5.39211447 25.88588856 5 22 C-0.3268938 20.7792535 -3.09213639 21.22036967 -8.06640625 23.36328125 C-10.90334197 24.29746412 -13.17380103 23.77720472 -16 23 C-16.33 22.01 -16.66 21.02 -17 20 C-14.81668044 17.64873278 -12.93607402 15.96386792 -10.125 14.375 C-5.23206245 10.65636746 -2.7159897 5.43197939 0 0 Z " fill="#D2D2D2" transform="translate(66,180)"/>
<path d="M0 0 C1.75 0.125 1.75 0.125 4 1 C7.73027706 6.03279115 10.31927573 11.52707023 13 17.16601562 C14.95877813 21.1945183 17.02782818 24.59659789 20 28 C25.445 27.01 25.445 27.01 31 26 C28.46800028 28.53199972 26.45440665 29.11946497 23 30 C20.375 29.9375 20.375 29.9375 18 29 C14.40608762 25.0955026 12.25322432 20.80219257 10 16.0625 C5.90949612 7.4370798 5.90949612 7.4370798 0 0 Z " fill="#E7E7E7" transform="translate(312,109)"/>
<path d="M0 0 C0.99 1.485 0.99 1.485 2 3 C5.76294832 7.82127753 8.87239504 8.71966017 14.6953125 9.4453125 C17.38949378 10.09374257 18.38821479 10.76227879 20 13 C20.1875 16.6875 20.1875 16.6875 20 20 C18.3125 20.8125 18.3125 20.8125 16 21 C13.25 18.5625 13.25 18.5625 11 16 C11.598125 16.33 12.19625 16.66 12.8125 17 C15.05386471 18.20787988 15.05386471 18.20787988 18 18 C17.72382467 16.05925139 17.72382467 16.05925139 17 14 C14.22170318 11.68045911 14.22170318 11.68045911 11.3125 12.3125 C6.83595078 11.89018404 4.8719756 9.88433858 1.5390625 7.01953125 C-0.37086783 4.51335363 -0.30828481 3.07753289 0 0 Z " fill="#E1E1E1" transform="translate(375,251)"/>
<path d="M0 0 C4.24480464 -0.33292585 6.35542625 -0.43885872 9.9375 2 C10.618125 2.66 11.29875 3.32 12 4 C11.67 5.32 11.34 6.64 11 8 C7.76834156 7.28269264 4.81292078 6.18684926 1.75 4.9375 C0.85796875 4.57527344 -0.0340625 4.21304687 -0.953125 3.83984375 C-1.96632813 3.42412109 -1.96632813 3.42412109 -3 3 C-2.01 2.67 -1.02 2.34 0 2 C0 1.34 0 0.68 0 0 Z " fill="#333333" transform="translate(382,262)"/>
<path d="M0 0 C4.06672314 0.74694915 5.53262474 2.36295188 8.0625 5.5625 C8.0625 6.5525 8.0625 7.5425 8.0625 8.5625 C7.8253125 7.92054687 7.588125 7.27859375 7.34375 6.6171875 C6.25222378 4.37579188 6.25222378 4.37579188 3.96875 3.8828125 C3.1746875 3.81835938 2.380625 3.75390625 1.5625 3.6875 C0.7684375 3.60757813 -0.025625 3.52765625 -0.84375 3.4453125 C-3.16103088 3.34170636 -3.16103088 3.34170636 -4.9375 5.5625 C-5.28874016 9.07045556 -5.38100979 12.55897726 -5.49609375 16.08203125 C-5.9539564 19.69225798 -6.8441909 21.63186725 -8.9375 24.5625 C-9.5975 24.2325 -10.2575 23.9025 -10.9375 23.5625 C-10.2775 22.9025 -9.6175 22.2425 -8.9375 21.5625 C-7.37806213 17.13570862 -7.66602621 12.29611559 -7.51171875 7.65625 C-6.64411959 2.9818382 -4.66228149 0.89277731 0 0 Z " fill="#ECECEC" transform="translate(76.9375,85.4375)"/>
<path d="M0 0 C1.2684375 0.12375 1.2684375 0.12375 2.5625 0.25 C5.18854356 4.18906533 4.59853893 7.29648484 4.25 11.8125 C4.20166016 12.59302734 4.15332031 13.37355469 4.10351562 14.17773438 C3.70968094 19.95563811 3.70968094 19.95563811 2.5625 22.25 C1.5625 21.25 1.5625 21.25 1.44897461 19.48413086 C1.45421143 18.73526611 1.45944824 17.98640137 1.46484375 17.21484375 C1.46806641 16.40595703 1.47128906 15.59707031 1.47460938 14.76367188 C1.48298828 13.91353516 1.49136719 13.06339844 1.5 12.1875 C1.50451172 11.33349609 1.50902344 10.47949219 1.51367188 9.59960938 C1.52549627 7.48304337 1.54343231 5.36651315 1.5625 3.25 C0.2425 3.25 -1.0775 3.25 -2.4375 3.25 C-4.71989171 6.17321965 -4.71989171 6.17321965 -6.4375 9.25 C-6.7675 8.59 -7.0975 7.93 -7.4375 7.25 C-2.84826653 0.2921299 -2.84826653 0.2921299 0 0 Z " fill="#EDEDED" transform="translate(212.4375,68.75)"/>
<path d="M0 0 C3 3 3 3 4.28125 4.5625 C6.57382374 6.47992531 8.23457992 6.49575194 11.1875 6.6875 C12.08855469 6.75324219 12.98960937 6.81898438 13.91796875 6.88671875 C14.60503906 6.92410156 15.29210937 6.96148437 16 7 C15.625 9.9375 15.625 9.9375 15 13 C14.01 13.495 14.01 13.495 13 14 C13.33 12.35 13.66 10.7 14 9 C12.783125 9.103125 11.56625 9.20625 10.3125 9.3125 C6.70995073 9.3188875 6.1073629 9.08223541 3.0625 6.75 C1.23965829 4.31954439 0.32968265 2.96714383 0 0 Z " fill="#C7C7C7" transform="translate(372,180)"/>
<path d="M0 0 C0.99 1.485 0.99 1.485 2 3 C6.08815044 8.07921721 9.80718821 9.09603837 16 10 C16 10.33 16 10.66 16 11 C9.36523494 12.77716921 9.36523494 12.77716921 5.6875 10.68359375 C3.49585649 8.87157421 1.65643741 7.31725021 0 5 C-0.21875 2.2578125 -0.21875 2.2578125 0 0 Z " fill="#F3F3F3" transform="translate(375,251)"/>
<path d="M0 0 C0.66 0.33 1.32 0.66 2 1 C1.16855469 1.92232422 1.16855469 1.92232422 0.3203125 2.86328125 C-0.76636719 4.07564453 -0.76636719 4.07564453 -1.875 5.3125 C-2.95394531 6.51326172 -2.95394531 6.51326172 -4.0546875 7.73828125 C-6.11605502 10.04189083 -6.11605502 10.04189083 -8 13 C-8.66 12.67 -9.32 12.34 -10 12 C-3.84965831 3.55353075 -3.84965831 3.55353075 0 0 Z " fill="#DEDEDE" transform="translate(376,147)"/>
<path d="M0 0 C2.64803309 2.16023752 3.41325694 3.70254607 4.375 6.9375 C3.385 6.2775 2.395 5.6175 1.375 4.9375 C1.375 4.2775 1.375 3.6175 1.375 2.9375 C-1.265 2.2775 -3.905 1.6175 -6.625 0.9375 C-3.91903781 -0.96669561 -3.14807385 -1.27422037 0 0 Z " fill="#D7D7D7" transform="translate(81.625,87.0625)"/>
</svg>
