<?xml version="1.0" encoding="UTF-8"?>
<svg version="1.1" xmlns="http://www.w3.org/2000/svg" width="395" height="395">
<path d="M0 0 C3.28938704 1.08356279 5.12112881 2.78615323 7.71875 5.0625 C11.78692391 8.14749832 11.78692391 8.14749832 16.6875 8.9921875 C19.73254575 8.43497552 22.66781516 7.67851294 25.65625 6.875 C27.56817909 6.62692532 29.48539041 6.41526437 31.40625 6.25 C32.22609375 6.17523437 33.0459375 6.10046875 33.890625 6.0234375 C34.76460937 5.94996094 34.76460937 5.94996094 35.65625 5.875 C35.965625 6.968125 36.275 8.06125 36.59375 9.1875 C37.23962897 11.42907994 37.9185617 13.6619351 38.65625 15.875 C39.666875 16.1225 40.6775 16.37 41.71875 16.625 C46.855897 17.9197281 49.93192416 21.2714631 53.65625 24.875 C54.46449219 25.59816406 55.27273438 26.32132813 56.10546875 27.06640625 C61.66905468 32.23807036 65.53057634 37.43553514 68.96875 44.14086914 C70.76000451 47.59049434 72.20184397 49.99884553 75.65625 51.875 C78.42785923 52.58511796 78.42785923 52.58511796 81.34375 52.9375 C84.29296875 53.34765625 84.29296875 53.34765625 86.65625 53.875 C86.98625 54.535 87.31625 55.195 87.65625 55.875 C86.99121094 57.6875 86.99121094 57.6875 85.890625 59.875 C85.49488281 60.68066406 85.09914063 61.48632812 84.69140625 62.31640625 C83.85031756 63.99091412 83.0091739 65.66539438 82.16796875 67.33984375 C77.2151226 77.42071709 75.12203934 86.98633068 74.015625 98.10742188 C73.15820771 105.19157082 71.20066232 111.83141933 65.61572266 116.62719727 C63.65625 117.875 63.65625 117.875 61.65625 117.875 C60.46487853 124.20505806 60.46194842 128.19624164 63.65625 133.875 C66.00476197 135.04925599 67.57293325 135.05964065 70.19140625 135.15625 C71.08279297 135.19363281 71.97417969 135.23101562 72.89257812 135.26953125 C74.78059353 135.33998932 76.6686144 135.41030122 78.55664062 135.48046875 C79.44673828 135.51785156 80.33683594 135.55523437 81.25390625 135.59375 C82.07383057 135.62404297 82.89375488 135.65433594 83.73852539 135.68554688 C85.65625 135.875 85.65625 135.875 86.65625 136.875 C87.12019277 140.18887691 87.30586128 142.74357371 85.59765625 145.71875 C81.97496364 150.19557338 77.66704753 153.11524603 72.65625 155.875 C65.93979286 151.10278046 65.22922716 145.55581402 63.65625 137.875 C58.07448967 136.41715204 53.86153971 137.58996604 48.65625 139.875 C46.01548451 142.38034162 44.84969147 144.43008462 43.40625 147.75 C39.5405362 154.65306036 32.40857072 158.89216181 25.953125 163.19921875 C23.60766935 164.91044404 21.65302577 166.77288972 19.65625 168.875 C18.66882813 168.16472656 17.68140625 167.45445312 16.6640625 166.72265625 C15.36984529 165.79419608 14.07557152 164.86581475 12.78125 163.9375 C11.80478516 163.23463867 11.80478516 163.23463867 10.80859375 162.51757812 C5.59101806 158.77921204 3.17318784 157.30689019 -3.34375 157.875 C-6.32791947 159.05235375 -8.99220157 160.63183923 -11.71875 162.3125 C-12.83431274 162.98224854 -12.83431274 162.98224854 -13.97241211 163.66552734 C-19.94311005 167.36679907 -24.78427395 171.49715645 -29.34375 176.875 C-30.33375 175.885 -30.33375 175.885 -31.34375 174.875 C-30.87901254 172.91646354 -30.40712099 170.9590618 -29.8828125 169.015625 C-28.80246776 164.7255604 -28.47032437 161.49860715 -30.6171875 157.5078125 C-32.66365699 154.38320298 -34.69964066 151.51910934 -37.34375 148.875 C-39.3592627 149.13093812 -41.37672857 149.39356032 -43.37109375 149.78125 C-45.34375 149.875 -45.34375 149.875 -48.34375 147.875 C-48.55 146.740625 -48.75625 145.60625 -48.96875 144.4375 C-49.89176982 140.81309394 -49.89176982 140.81309394 -52.2578125 139.99609375 C-53.84866349 139.57310829 -55.43982223 139.15127898 -57.03125 138.73046875 C-60.98446224 137.26804733 -63.08665873 134.32903361 -65.34375 130.875 C-65.64539063 130.17246094 -65.94703125 129.46992188 -66.2578125 128.74609375 C-67.4085405 126.20607219 -68.23425059 124.7370631 -70.34375 122.875 C-75.46335931 121.02761699 -80.96386568 120.48189647 -86.34375 119.875 C-86.19140625 118.109375 -86.19140625 118.109375 -85.34375 115.875 C-82.83984375 113.953125 -82.83984375 113.953125 -79.78125 112.125 C-78.76933594 111.51140625 -77.75742188 110.8978125 -76.71484375 110.265625 C-75.54115234 109.57726562 -75.54115234 109.57726562 -74.34375 108.875 C-76.01505701 100.38511598 -78.82046619 92.43903049 -81.7734375 84.31835938 C-82.13179687 83.28904297 -82.49015625 82.25972656 -82.859375 81.19921875 C-83.19227539 80.27197998 -83.52517578 79.34474121 -83.86816406 78.3894043 C-84.43512727 75.39189195 -84.02120772 74.36820538 -82.34375 71.875 C-80.52037937 69.8777825 -78.62875827 67.97278373 -76.70703125 66.0703125 C-75.07698618 63.8879975 -75.07698618 63.8879975 -75.39453125 60.92578125 C-76.46754979 57.4771085 -77.83508963 55.63112353 -80.21875 52.9375 C-83.52579395 49.02001604 -85.66524415 45.70070433 -87.34375 40.875 C-86.00183594 40.9059375 -86.00183594 40.9059375 -84.6328125 40.9375 C-76.32341364 40.79576185 -72.16057804 39.69652385 -66.1171875 34.0546875 C-62.66797773 31.3439001 -59.15186517 29.95830761 -55.09375 28.375 C-49.42284767 26.11221658 -45.92790194 24.11616798 -42.7734375 18.796875 C-40.38416829 15.58507048 -37.00232212 14.04294192 -33.515625 12.19921875 C-29.51556046 9.76033048 -28.67125786 6.14198956 -27.34375 1.875 C-20.49191727 0.28439597 -20.49191727 0.28439597 -17.171875 1.9921875 C-15.81876094 2.93326306 -14.49300275 3.91536713 -13.203125 4.94140625 C-12.58953125 5.24949219 -11.9759375 5.55757812 -11.34375 5.875 C-8.56786942 4.92713834 -7.11176376 3.66680722 -4.90625 1.6875 C-2.34375 -0.125 -2.34375 -0.125 0 0 Z " fill="#040404" transform="translate(293.34375,20.125)"/>
<path d="M0 0 C11.49209185 1.21059128 21.63614534 5.11572942 32.16064453 9.64038086 C37.27908213 11.77335042 42.3428707 13.23143221 47.7578125 14.40234375 C63.92640275 17.92741406 63.92640275 17.92741406 69.5078125 24.96484375 C71.07075522 27.77814065 71.76332622 30.53968237 72.5703125 33.65234375 C74.45674214 40.66370886 77.92829953 44.09183351 83.7578125 48.21484375 C80.87488439 62.83436245 75.61454367 78.26805567 62.9453125 87.02734375 C52.91019617 92.66376582 39.95827993 94.77417492 28.70410156 91.64355469 C18.5110109 87.86928686 10.48504441 81.5464792 5.8828125 71.65234375 C4.07444 66.92782091 3.30729831 62.48514595 2.7578125 57.46484375 C2.01349624 50.96360351 0.84353407 47.24201794 -3.2421875 42.21484375 C-4.08653285 41.12516552 -4.92877961 40.03385964 -5.76953125 38.94140625 C-8.12352688 35.90130702 -10.5118788 32.89027831 -12.91162109 29.88623047 C-14.76984513 27.55202832 -16.60108498 25.19728854 -18.4296875 22.83984375 C-18.98011719 22.13085938 -19.53054687 21.421875 -20.09765625 20.69140625 C-20.47535156 20.20414063 -20.85304687 19.716875 -21.2421875 19.21484375 C-20.29101616 18.04233065 -19.33101741 16.8769736 -18.3671875 15.71484375 C-17.83351562 15.06515625 -17.29984375 14.41546875 -16.75 13.74609375 C-16.00363281 12.988125 -16.00363281 12.988125 -15.2421875 12.21484375 C-14.5821875 12.21484375 -13.9221875 12.21484375 -13.2421875 12.21484375 C-13.2421875 11.55484375 -13.2421875 10.89484375 -13.2421875 10.21484375 C-11.59765625 8.59375 -11.59765625 8.59375 -9.4296875 6.77734375 C-6.45026486 4.29131801 -6.45026486 4.29131801 -3.78515625 1.48828125 C-2.2421875 0.21484375 -2.2421875 0.21484375 0 0 Z " fill="#080808" transform="translate(186.2421875,208.78515625)"/>
<path d="M0 0 C1.10730469 0.67160156 2.21460938 1.34320313 3.35546875 2.03515625 C15.86951442 9.67078639 15.86951442 9.67078639 16.6796875 11.71484375 C17.48013706 17.42536805 17.11549579 23.24855541 17 29 C16.98743164 29.81742676 16.97486328 30.63485352 16.96191406 31.47705078 C16.91420464 34.02755772 16.83618908 36.57552706 16.75 39.125 C16.73598145 39.9301001 16.72196289 40.7352002 16.70751953 41.56469727 C16.44987322 47.65014943 14.75198689 50.43886678 10.25390625 54.625 C9.69574219 55.07875 9.13757813 55.5325 8.5625 56 C6.43044601 57.7706889 4.5045423 59.50816175 2.5625 61.5 C-6.72692779 70.56285638 -14.84763663 73.64951756 -27.64648438 73.69799805 C-38.21388432 73.39457947 -47.94921135 69.51730343 -55.84765625 62.453125 C-58.03994582 59.95447191 -59.34527637 57.7261072 -60.71484375 54.74609375 C-62.02228364 52.70861696 -62.02228364 52.70861696 -65.03491211 51.36694336 C-68 49 -68 49 -68.74462891 45.52001953 C-68.77061379 44.1411822 -68.7626202 42.76142319 -68.7265625 41.3828125 C-68.72755951 40.6480368 -68.72855652 39.91326111 -68.72958374 39.15621948 C-68.72491163 37.60452441 -68.70550762 36.05281293 -68.67236328 34.50146484 C-68.6252771 32.13890381 -68.63122602 29.78087816 -68.64453125 27.41796875 C-68.63337202 25.90622334 -68.61914863 24.39449681 -68.6015625 22.8828125 C-68.60338531 22.18261993 -68.60520813 21.48242737 -68.60708618 20.76101685 C-68.46375884 15.74380292 -67.10194607 12.89266648 -64 9 C-59.92925649 5.21024587 -55.13418601 2.58996773 -50.3125 -0.125 C-49.56033203 -0.56714844 -48.80816406 -1.00929688 -48.03320312 -1.46484375 C-32.64127191 -10.13672329 -14.80673339 -9.00986356 0 0 Z " fill="#060606" transform="translate(170,93)"/>
<path d="M0 0 C10.31450419 0.12009125 17.438729 7.50606704 24.60546875 14.1875 C28.01767465 17.31932309 31.60839337 20.20376275 35.20703125 23.1171875 C38.37917958 25.70756297 41.50527103 28.34701299 44.625 31 C50.40191298 35.9041602 56.23789049 40.72834282 62.125 45.5 C63.40630378 46.55201784 64.68755018 47.60410555 65.96875 48.65625 C67.31219521 49.75037436 68.65594325 50.84412698 70 51.9375 C70.63083496 52.45820068 71.26166992 52.97890137 71.91162109 53.51538086 C76.87114389 57.52705141 80.76171095 59.79393823 87.3125 59.6875 C88.75882813 59.68363281 88.75882813 59.68363281 90.234375 59.6796875 C93.08707542 59.58823161 93.08707542 59.58823161 95.640625 58.8828125 C98.45504104 58.22006292 100.26411737 57.96704869 103.125 58.5 C110.35687055 63.56320552 116.23751386 70.1687708 121.125 77.5 C121.99818212 83.63746279 122.34280062 89.72449696 118.625 94.9375 C113.31828495 100.87148633 107.05266893 105.86020279 98.99609375 106.90625 C90.22596463 107.14570745 83.32082703 105.76406139 76.125 100.5 C73.86268908 97.320536 73.84248706 94.3324073 73.6875 90.5 C72.78097674 77.03812958 69.69784923 68.64223054 59.9375 59.375 C45.4440359 46.81541454 29.21580919 36.42944304 13.24780273 25.8762207 C12.54384369 25.41082886 11.83988464 24.94543701 11.11459351 24.46594238 C9.78536593 23.58809566 8.4552763 22.71155235 7.12417603 21.83654785 C0.1933341 17.26525786 0.1933341 17.26525786 -1.875 15.5 C-1.875 14.84 -1.875 14.18 -1.875 13.5 C-2.535 13.5 -3.195 13.5 -3.875 13.5 C-5.87044337 9.38439805 -6.13747139 6.04950416 -5.875 1.5 C-4.20548025 -0.16951975 -2.29813997 0.13020623 0 0 Z " fill="#101010" transform="translate(8.875,248.5)"/>
<path d="M0 0 C2.15123612 1.47409833 4.19986142 2.96113577 6.25 4.5625 C6.80429688 4.98724609 7.35859375 5.41199219 7.9296875 5.84960938 C9.29089411 6.89398341 10.64605833 7.94622464 12 9 C11.38351288 17.32257611 9.17274964 26.01430338 3 32 C-0.78916906 34.38176341 -4.22634511 34.22001142 -8.51953125 33.6015625 C-14.16689481 32.23196567 -19.47172937 30.28065001 -22.77734375 25.34765625 C-24.27069673 21.25882717 -24.33921993 17.92762151 -24.1875 13.625 C-24.17396484 12.88894531 -24.16042969 12.15289062 -24.14648438 11.39453125 C-24.11144869 9.59603257 -24.05765288 7.79791578 -24 6 C-4.90244811 -2.00471856 -4.90244811 -2.00471856 0 0 Z " fill="#151515" transform="translate(159,285)"/>
<path d="M0 0 C0.84365112 0.48327759 0.84365112 0.48327759 1.7043457 0.97631836 C4.21806931 2.0972418 5.99198572 2.2942558 8.73046875 2.37890625 C10.05788086 2.43014648 10.05788086 2.43014648 11.41210938 2.48242188 C12.32798828 2.50884766 13.24386719 2.53527344 14.1875 2.5625 C16.0144625 2.62217146 17.84130284 2.68575705 19.66796875 2.75390625 C20.87876099 2.78979858 20.87876099 2.78979858 22.11401367 2.82641602 C24 3 24 3 25 4 C25.46394277 7.31387691 25.64961128 9.86857371 23.94140625 12.84375 C20.31871364 17.32057338 16.01079753 20.24024603 11 23 C4.81277571 18.60381432 3.9170696 14.23692027 2.66015625 7.0859375 C1.90016744 4.68455273 0.89309533 3.61970554 -1 2 C-0.67 1.34 -0.34 0.68 0 0 Z " fill="#222222" transform="translate(355,153)"/>
<path d="M0 0 C0.66 0.33 1.32 0.66 2 1 C0.37660195 2.70884005 -1.29319053 4.37446717 -3 6 C-3.66 6 -4.32 6 -5 6 C-6.80693756 7.78612311 -6.80693756 7.78612311 -8.625 10 C-9.57246094 11.11375 -9.57246094 11.11375 -10.5390625 12.25 C-11.02117187 12.8275 -11.50328125 13.405 -12 14 C-12.66 13.67 -13.32 13.34 -14 13 C-10.29094794 7.33807584 -6.41007053 2.64198853 0 0 Z " fill="#747474" transform="translate(260,32)"/>
<path d="M0 0 C0.66 0.99 1.32 1.98 2 3 C-3 8 -3 8 -4.75 9.5 C-6.44395709 11.5327485 -6.65107359 13.41794457 -7 16 C-8.125 14.25 -8.125 14.25 -9 12 C-7.73693863 8.7050573 -5.7174731 6.35274789 -3.375 3.75 C-2.74335938 3.04359375 -2.11171875 2.3371875 -1.4609375 1.609375 C-0.97882813 1.07828125 -0.49671875 0.5471875 0 0 Z " fill="#727272" transform="translate(218,84)"/>
<path d="M0 0 C0 3 0 3 -1.390625 4.7890625 C-2.31101563 5.69785156 -2.31101563 5.69785156 -3.25 6.625 C-3.85328125 7.23601562 -4.4565625 7.84703125 -5.078125 8.4765625 C-7.09363101 10.0742197 -8.48788161 10.58872398 -11 11 C-9.71937515 9.2925002 -8.38232443 7.62626404 -7 6 C-6.34 6 -5.68 6 -5 6 C-5 5.34 -5 4.68 -5 4 C-3.37373596 2.61767557 -1.7074998 1.28062485 0 0 Z " fill="#7B7B7B" transform="translate(178,215)"/>
<path d="M0 0 C-1.28519565 2.86697492 -2.57129254 4.97607712 -5 7 C-5.66 7 -6.32 7 -7 7 C-3.86206897 0 -3.86206897 0 0 0 Z " fill="#6B6B6B" transform="translate(111,99)"/>
</svg>
