<?xml version="1.0" encoding="UTF-8"?>
<svg version="1.1" xmlns="http://www.w3.org/2000/svg" width="482" height="482">
<path d="M0 0 C3.77676318 0.6166144 4.72609477 1.51872708 7.0625 4.5 C7.53125 7.34765625 7.53125 7.34765625 7.5625 10.5625 C7.94901295 17.88157504 8.8218889 24.9407514 13.9296875 30.55078125 C16.86486185 32.95983944 18.9978081 34.40320983 22.8125 34.75 C25.36083956 33.5631186 25.36083956 33.5631186 27.0625 30.4375 C29.0625 27.5 29.0625 27.5 31.5625 26.75 C34.0625 27.5 34.0625 27.5 35.6875 30.4375 C37.69801461 33.70806204 37.69801461 33.70806204 40.6171875 34.05078125 C42.54421468 34.18112394 44.47508205 34.26504256 46.40625 34.296875 C49.17553751 34.50864404 50.73029821 35.03003763 53.0625 36.5 C55.67688493 39.74183731 56.48075035 43.02868721 57.4375 47 C58.69089748 51.80684394 59.92710111 54.49243717 64.0625 57.5 C67.69937631 59.52048684 70.35281443 60.4483865 74.5 60.75 C79.20902115 59.09771188 81.28131645 56.35797251 84.36328125 52.53125 C86.76056837 49.66552746 87.71725525 49.53766306 91.5 49.125 C95.0625 49.5 95.0625 49.5 97 51.4375 C98.96209242 57.09294285 98.24666915 62.44416032 97.25 68.25 C96.82411486 71.79904285 96.86364645 72.22036219 99.0625 75.3125 C104.85182939 79.84878366 104.85182939 79.84878366 111.8125 81.5625 C115.88846517 80.22997292 119.70422898 78.49757293 123.57421875 76.65625 C128.71949069 74.26535441 133.69687868 73.50134079 139.17871094 75.12792969 C141.30487243 75.9734382 143.36907234 76.89705672 145.4375 77.875 C146.14777344 78.19210938 146.85804688 78.50921875 147.58984375 78.8359375 C150.46819466 80.14676144 152.80902743 81.24652743 155.0625 83.5 C155.29296875 86.4765625 155.29296875 86.4765625 155.25 90.125 C155.23066406 92.01412109 155.23066406 92.01412109 155.2109375 93.94140625 C155.09452285 96.73229438 154.84872563 99.32015497 154.375 102.0625 C153.79594469 105.48459448 153.79594469 105.48459448 155.25 108.375 C157.65355119 111.26223226 157.65355119 111.26223226 161.0625 112.5 C163.4195226 111.55719096 165.75284152 110.55352843 168.0625 109.5 C170.9375 109.25 170.9375 109.25 173.0625 109.5 C174.95403589 111.39153589 174.48690863 114.70397656 174.68359375 117.2734375 C174.95450825 119.77920078 174.95450825 119.77920078 177.0625 122.5 C180.82854532 122.16770188 182.06933583 121.49375859 184.9375 118.875 C188.0625 116.5 188.0625 116.5 191.6875 116.4375 C195.3564828 117.59255014 196.91455345 118.32103911 199.0625 121.5 C199.46274615 124.63526148 199.40125019 126.7210175 198.13671875 129.62890625 C196.68305695 133.51414779 196.12726417 137.41116691 195.5 141.5 C195.24937427 143.08344053 194.99809008 144.66677701 194.74609375 146.25 C194.63612061 146.99499756 194.52614746 147.73999512 194.4128418 148.50756836 C194.0625 150.5 194.0625 150.5 193.171875 153.12890625 C192.99164137 157.03611387 195.5542809 159.52011428 197.875 162.4375 C203.18358575 169.2333733 205.25181037 174.51854227 205.42578125 183.23046875 C205.87539475 185.6917402 205.87539475 185.6917402 208.19140625 187.171875 C211.31441507 188.61653214 214.37787299 189.62287026 217.6875 190.5625 C221.32899707 191.59995168 223.8984523 192.39063487 227.0625 194.5 C227.375 198 227.375 198 227.0625 201.5 C224.34143306 204.22106694 222.21473689 204.10655572 218.4375 204.625 C217.24898438 204.79257813 216.06046875 204.96015625 214.8359375 205.1328125 C213.92070312 205.25398437 213.00546875 205.37515625 212.0625 205.5 C212.12933278 207.94499723 212.12933278 207.94499723 213.0625 210.5 C215.5492758 211.94235526 215.5492758 211.94235526 218.5625 212.75 C224.03242481 214.46992481 224.03242481 214.46992481 225.0625 215.5 C225.1875 219 225.1875 219 225.0625 222.5 C223.17775997 224.38474003 220.03503598 224.19332 217.5 224.5625 C216.30246094 224.73910156 215.10492188 224.91570312 213.87109375 225.09765625 C212.94425781 225.23042969 212.01742188 225.36320313 211.0625 225.5 C210.60505248 232.80633634 210.60505248 232.80633634 213.0625 239.5 C217.49439638 241.67720784 221.58510917 241.88682991 226.44140625 242.15625 C229.10356389 242.50538543 230.80409216 243.06984652 233.0625 244.5 C233.9375 246.375 233.9375 246.375 234.0625 248.5 C233.4025 249.82 232.7425 251.14 232.0625 252.5 C226.4525 252.5 220.8425 252.5 215.0625 252.5 C214.505625 254.376875 213.94875 256.25375 213.375 258.1875 C211.73323235 263.13609044 210.2267273 266.18997317 206.0625 269.5 C205.3509375 270.3353125 205.3509375 270.3353125 204.625 271.1875 C202.35964755 273.09039606 199.8729447 273.68809375 197.0625 274.5 C198.66469505 277.53573799 199.93014141 279.39915536 202.6875 281.5 C205.0625 283.5 205.0625 283.5 205.875 286.25 C205.9678125 287.36375 205.9678125 287.36375 206.0625 288.5 C202.95674795 290.34647218 201.06447682 290.68809488 197.5 290.1875 C196.35337891 290.03861328 196.35337891 290.03861328 195.18359375 289.88671875 C193.0625 289.5 193.0625 289.5 190.0625 288.5 C188.50131572 288.43259135 186.9374748 288.41485544 185.375 288.4375 C184.16263672 288.45103516 184.16263672 288.45103516 182.92578125 288.46484375 C182.31089844 288.47644531 181.69601562 288.48804688 181.0625 288.5 C180.711875 289.7375 180.36125 290.975 180 292.25 C178.25967834 297.55503848 175.51585768 302.0721126 172.5859375 306.80078125 C170.25773723 310.92587455 169.92117658 314.43840053 169.74609375 319.140625 C169.70419922 320.21054687 169.66230469 321.28046875 169.61914062 322.3828125 C169.56016602 324.04957031 169.56016602 324.04957031 169.5 325.75 C169.45681641 326.87664062 169.41363281 328.00328125 169.36914062 329.1640625 C169.26317985 331.94258954 169.16110858 334.72120391 169.0625 337.5 C167.5775 337.46519531 167.5775 337.46519531 166.0625 337.4296875 C157.85053166 337.13409468 157.85053166 337.13409468 149.8125 338.5 C139.96885898 341.12497094 130.9604639 339.44331328 122.0625 334.5 C119.21998855 331.48940961 117.46557481 328.57660751 115.9375 324.75 C114.78001436 321.43009291 114.78001436 321.43009291 112.0625 319.5 C110.18870395 319.42966231 108.31248898 319.4156978 106.4375 319.4375 C104.93316406 319.45103516 104.93316406 319.45103516 103.3984375 319.46484375 C102.62757813 319.47644531 101.85671875 319.48804688 101.0625 319.5 C99.40801225 323.68488077 98.68013708 326.19101288 100.0625 330.5 C101.65157907 332.78973122 103.23921595 334.91646727 105 337.0625 C112.34745959 346.15589058 112.34745959 346.15589058 112.375 353.5 C112.39175781 354.53125 112.40851563 355.5625 112.42578125 356.625 C112.0150919 359.87518664 111.42853434 361.25120159 109.0625 363.5 C106.22681142 364.16259654 104.02010774 363.78167693 101.0625 363.5 C100.4025 362.84 99.7425 362.18 99.0625 361.5 C97.1134375 361.5928125 97.1134375 361.5928125 95.125 361.6875 C92.97265625 361.73828125 92.97265625 361.73828125 91.0625 361.5 C88.56518798 358.84660598 88.13661269 357.01878885 87.625 353.4375 C88.0625 350.5 88.0625 350.5 90.0625 348.5625 C92.36264707 346.58699419 92.36264707 346.58699419 92.5625 343.3125 C92.02994861 339.25179567 90.85389658 336.4256902 89.07421875 332.78515625 C88.07040805 330.51786182 87.50674076 328.42109473 87 326 C86.690625 324.845 86.38125 323.69 86.0625 322.5 C85.0725 322.17 84.0825 321.84 83.0625 321.5 C82.06577311 325.98527102 82.09106318 329.35574071 83 333.875 C84.20678977 339.8924175 85.27290756 345.5695396 82.875 351.375 C79.14676464 355.74603456 74.95689355 356.93454022 69.4375 357.9375 C64.78121647 358.85509047 60.48526234 359.96686369 56.0625 361.6875 C49.02613556 364.34935048 49.02613556 364.34935048 45.0625 363.5 C39.26737319 359.36062371 37.07128785 352.51182681 35.38671875 345.8125 C34.19488612 343.19979934 34.19488612 343.19979934 31.03125 342.16796875 C26.52982856 341.17425434 22.12805697 341.47711548 17.5625 341.8125 C16.33853516 341.88500977 16.33853516 341.88500977 15.08984375 341.95898438 C10.37046367 342.25820671 5.74207974 342.80461787 1.0625 343.5 C-8.19789405 344.37578921 -15.65290778 342.30320579 -22.9375 336.4375 C-30.69256035 330.26295188 -41.51121396 329.52699714 -51 327.875 C-53.42900251 327.4488147 -55.85742705 327.01931726 -58.28515625 326.5859375 C-59.34742432 326.4007959 -60.40969238 326.2156543 -61.50415039 326.02490234 C-63.9375 325.5 -63.9375 325.5 -64.9375 324.5 C-65.13020257 322.48850194 -65.26156739 320.47107027 -65.3671875 318.453125 C-65.44066406 317.215625 -65.51414062 315.978125 -65.58984375 314.703125 C-65.73737978 312.08371345 -65.8780907 309.46390788 -66.01171875 306.84375 C-66.08777344 305.60109375 -66.16382813 304.3584375 -66.2421875 303.078125 C-66.30390137 301.93762695 -66.36561523 300.79712891 -66.42919922 299.62207031 C-66.98199202 296.2267224 -67.91125265 294.25797343 -69.9375 291.5 C-72.35070925 289.83916418 -72.35070925 289.83916418 -75.125 288.5625 C-82.54725072 284.72374334 -88.85854983 280.97807531 -92.9375 273.5 C-92.9375 272.84 -92.9375 272.18 -92.9375 271.5 C-98.15542739 271.09862097 -101.82625428 271.67686599 -106.75 273.5 C-113.95671742 276.06016131 -120.43013263 276.92672571 -127.625 274 C-128.388125 273.505 -129.15125 273.01 -129.9375 272.5 C-128.20950448 263.07456987 -125.75341115 252.67045617 -117.9375 246.5 C-114.65258627 244.31005752 -113.10654361 244.14722661 -109.25 243.875 C-107.75919922 243.76285156 -107.75919922 243.76285156 -106.23828125 243.6484375 C-105.09939453 243.57496094 -105.09939453 243.57496094 -103.9375 243.5 C-105.46444181 237.85494239 -107.14442686 232.61834963 -109.97265625 227.484375 C-111.22765069 224.90325283 -112.04700138 222.22540236 -112.9375 219.5 C-113.85563477 219.50112793 -114.77376953 219.50225586 -115.71972656 219.50341797 C-119.13493856 219.49347746 -122.5477238 219.45689375 -125.96240234 219.40234375 C-127.43854685 219.38420373 -128.91486094 219.3766117 -130.39111328 219.37988281 C-132.51727942 219.38274634 -134.63994477 219.34738179 -136.765625 219.3046875 C-138.0434082 219.29421387 -139.32119141 219.28374023 -140.63769531 219.27294922 C-143.9375 218.5 -143.9375 218.5 -146.40136719 215.59814453 C-147.9375 212.5 -147.9375 212.5 -147.6875 210.125 C-147.31625 209.320625 -147.31625 209.320625 -146.9375 208.5 C-146.17824219 208.29503906 -145.41898437 208.09007812 -144.63671875 207.87890625 C-143.64285156 207.60949219 -142.64898437 207.34007812 -141.625 207.0625 C-140.63886719 206.79566406 -139.65273437 206.52882812 -138.63671875 206.25390625 C-134.40151046 205.34681924 -134.40151046 205.34681924 -131.6875 202.3125 C-130.51759981 197.92537428 -131.07552793 195.12581194 -133.20703125 191.10546875 C-135.43538287 187.34265728 -137.79554624 183.68101456 -140.25 180.0625 C-143.67382295 174.86336144 -143.62866693 169.53778012 -142.9375 163.5 C-141.09306352 158.00804563 -137.95713705 153.45617957 -134.5625 148.8125 C-131.52071226 144.61670068 -129.23515025 140.30868258 -127.0625 135.625 C-126.76424316 134.98216064 -126.46598633 134.33932129 -126.15869141 133.67700195 C-123.07562529 126.84918663 -121.35600563 119.99447014 -122.9375 112.5 C-124.98714647 110.36731882 -127.00579598 109.1897807 -129.59765625 107.78125 C-133.19380365 105.81207413 -134.81914474 104.0305921 -136.9375 100.5 C-137.37886165 96.35922528 -136.56666609 93.43209791 -134.25 90 C-131.07213101 87.93867957 -129.6936742 87.8621591 -125.9375 88.5 C-123.60064877 89.69319789 -121.39177424 90.98923578 -119.18359375 92.40625 C-116.5196911 93.70345477 -114.86627244 93.87327492 -111.9375 93.5 C-106.78895391 88.95012206 -105.62874226 84.20204449 -104.9375 77.5 C-104.80795646 74.4758285 -104.83978015 71.52931541 -104.9375 68.5 C-104.36902344 68.24347656 -103.80054688 67.98695312 -103.21484375 67.72265625 C-95.29458931 63.79558518 -91.28369528 58.36372882 -86.75 50.9453125 C-86.36650391 50.32519287 -85.98300781 49.70507324 -85.58789062 49.06616211 C-84.84040218 47.84546525 -84.10887609 46.6147973 -83.39648438 45.37329102 C-80.06569217 39.87887429 -76.28370954 37.5549391 -70.19921875 35.63671875 C-57.92442328 33.49468312 -50.43722646 35.80305124 -39.671875 41.58984375 C-35.09158182 44.00853236 -30.60501963 45.77844752 -25.375 45.9375 C-24.65183594 45.97746094 -23.92867188 46.01742187 -23.18359375 46.05859375 C-20.556456 45.40523601 -18.88684848 44.38647482 -17.05102539 42.38842773 C-14.49046095 38.04596644 -14.178462 32.72205935 -13.4375 27.8125 C-9.41435312 1.60244308 -9.41435312 1.60244308 0 0 Z " fill="#030303" transform="translate(232.9375,34.5)"/>
<path d="M0 0 C3.79201098 0.61910383 4.75101175 1.47081197 7.0625 4.5 C7.453125 7.734375 7.453125 7.734375 7.3125 11.25 C7.27640625 12.42046875 7.2403125 13.5909375 7.203125 14.796875 C7.15671875 15.68890625 7.1103125 16.5809375 7.0625 17.5 C6.7325 17.5 6.4025 17.5 6.0625 17.5 C6.04832031 16.66855469 6.03414062 15.83710937 6.01953125 14.98046875 C5.94798828 13.35044922 5.94798828 13.35044922 5.875 11.6875 C5.84019531 10.60855469 5.80539063 9.52960937 5.76953125 8.41796875 C5.33687816 5.30943237 5.33687816 5.30943237 2.63671875 3.61328125 C0.22399198 2.36768571 0.22399198 2.36768571 -1.9375 2.5 C-7.12331139 10.696656 -9.36846141 18.38236956 -11.0625 27.875 C-11.51017148 30.34358844 -11.97063716 32.80989899 -12.4453125 35.2734375 C-12.73365967 36.88871338 -12.73365967 36.88871338 -13.02783203 38.53662109 C-14.0732918 41.942362 -15.51730213 43.91112696 -17.9375 46.5 C-22.94159213 49.00204607 -29.2234396 47.96258517 -34.42578125 46.55859375 C-39.93549608 44.63772049 -45.12404799 42.47334348 -50.25 39.6875 C-57.95121228 35.71793204 -64.83652893 37.47931918 -73.04296875 39.16015625 C-80.43575822 42.5821897 -84.28376029 51.04028419 -88.23632812 57.80273438 C-91.76787837 63.66633518 -95.30878452 67.22729755 -101.9375 69.5 C-101.97488281 70.51320313 -102.01226562 71.52640625 -102.05078125 72.5703125 C-102.11648388 73.92190939 -102.18292971 75.27347029 -102.25 76.625 C-102.28383789 77.62273437 -102.28383789 77.62273437 -102.31835938 78.640625 C-102.64548801 84.70737425 -104.48575675 88.64499474 -108.1875 93.375 C-110.9375 95.5 -110.9375 95.5 -114.25 96.0625 C-118.14955018 95.46765336 -120.60591406 94.26336356 -124.01171875 92.3984375 C-126.75790329 91.11725607 -128.96762162 91.07573166 -131.9375 91.5 C-134.32781255 93.4767105 -134.32781255 93.4767105 -134.375 97.25 C-134.29549743 102.090823 -132.2780995 104.1594005 -128.9375 107.5 C-132.77025898 105.99427326 -134.85232075 104.05252761 -136.9375 100.5 C-137.28797219 96.40029037 -136.54582277 93.40121892 -134.25 90 C-131.07213101 87.93867957 -129.6936742 87.8621591 -125.9375 88.5 C-123.60064877 89.69319789 -121.39177424 90.98923578 -119.18359375 92.40625 C-116.5196911 93.70345477 -114.86627244 93.87327492 -111.9375 93.5 C-106.78895391 88.95012206 -105.62874226 84.20204449 -104.9375 77.5 C-104.80795646 74.4758285 -104.83978015 71.52931541 -104.9375 68.5 C-104.36902344 68.24347656 -103.80054688 67.98695312 -103.21484375 67.72265625 C-95.29458931 63.79558518 -91.28369528 58.36372882 -86.75 50.9453125 C-86.36650391 50.32519287 -85.98300781 49.70507324 -85.58789062 49.06616211 C-84.84040218 47.84546525 -84.10887609 46.6147973 -83.39648438 45.37329102 C-80.06569217 39.87887429 -76.28370954 37.5549391 -70.19921875 35.63671875 C-57.92442328 33.49468312 -50.43722646 35.80305124 -39.671875 41.58984375 C-35.09158182 44.00853236 -30.60501963 45.77844752 -25.375 45.9375 C-24.65183594 45.97746094 -23.92867188 46.01742187 -23.18359375 46.05859375 C-20.556456 45.40523601 -18.88684848 44.38647482 -17.05102539 42.38842773 C-14.49046095 38.04596644 -14.178462 32.72205935 -13.4375 27.8125 C-9.41435312 1.60244308 -9.41435312 1.60244308 0 0 Z " fill="#EBEBEB" transform="translate(232.9375,34.5)"/>
<path d="M0 0 C2.9719385 1.12451727 5.33440687 2.22293791 8 4 C11.25004239 21.5325416 1.23392558 35.67180126 -7.8984375 49.70703125 C-11.56368452 55.45015995 -12.90309354 59.17035511 -12 66 C-10.20776175 71.4276306 -6.77709316 75.71862151 -3.328125 80.1953125 C-0.06658946 84.62716373 0.58429431 88.5465864 0 94 C-2.19078648 98.28199176 -4.78582705 99.42610923 -9.125 101 C-10.42824219 101.4021875 -10.42824219 101.4021875 -11.7578125 101.8125 C-14.24353373 102.84998147 -14.24353373 102.84998147 -15.3046875 105.625 C-15.64886719 106.800625 -15.64886719 106.800625 -16 108 C-17.5625 106.75 -17.5625 106.75 -19 105 C-18.58984375 102.890625 -18.58984375 102.890625 -18 101 C-17.24074219 100.79503906 -16.48148437 100.59007812 -15.69921875 100.37890625 C-14.70535156 100.10949219 -13.71148437 99.84007812 -12.6875 99.5625 C-11.70136719 99.29566406 -10.71523437 99.02882813 -9.69921875 98.75390625 C-5.46401046 97.84681924 -5.46401046 97.84681924 -2.75 94.8125 C-1.58009981 90.42537428 -2.13802793 87.62581194 -4.26953125 83.60546875 C-6.49788287 79.84265728 -8.85804624 76.18101456 -11.3125 72.5625 C-14.73632295 67.36336144 -14.69116693 62.03778012 -14 56 C-12.15556352 50.50804563 -9.01963705 45.95617957 -5.625 41.3125 C-2.58321226 37.11670068 -0.29765025 32.80868258 1.875 28.125 C2.32238525 27.16074097 2.32238525 27.16074097 2.77880859 26.17700195 C5.91792143 19.22506454 7.18703446 12.64621297 6 5 C4.15573039 2.74708756 2.72966399 2.194228 0 1 C0 0.67 0 0.34 0 0 Z " fill="#EAEAEA" transform="translate(104,142)"/>
<path d="M0 0 C2.25 -0.375 2.25 -0.375 5 0 C5.804375 1.4540625 5.804375 1.4540625 6.625 2.9375 C8.63551461 6.20806204 8.63551461 6.20806204 11.5546875 6.55078125 C13.48171468 6.68112394 15.41258205 6.76504256 17.34375 6.796875 C20.11303751 7.00864404 21.66779821 7.53003763 24 9 C26.61438493 12.24183731 27.41825035 15.52868721 28.375 19.5 C29.62839748 24.30684394 30.86460111 26.99243717 35 30 C38.63687631 32.02048684 41.29031443 32.9483865 45.4375 33.25 C50.14652115 31.59771188 52.21881645 28.85797251 55.30078125 25.03125 C57.69806837 22.16552746 58.65475525 22.03766306 62.4375 21.625 C66 22 66 22 67.9375 23.9375 C70.47238106 31.24392187 68.78962879 39.45622494 68 47 C67.34 46.67 66.68 46.34 66 46 C66.01047363 45.40461426 66.02094727 44.80922852 66.03173828 44.19580078 C66.07323949 41.50557657 66.09930704 38.81541963 66.125 36.125 C66.15013672 34.71927734 66.15013672 34.71927734 66.17578125 33.28515625 C66.18222656 32.38925781 66.18867188 31.49335937 66.1953125 30.5703125 C66.20578613 29.74289551 66.21625977 28.91547852 66.22705078 28.06298828 C66.19302257 25.77601843 66.19302257 25.77601843 64 24 C59.37132354 24.18607745 57.37966566 26.20891563 54.3125 29.5 C49.23470206 34.89356017 49.23470206 34.89356017 44.375 35.3125 C38.62987709 35.23938025 34.25874336 32.85718898 29.890625 29.265625 C26.89005762 25.66990376 26.27200451 21.55887469 25.125 17.09375 C23.68302266 13.12831231 21.77544393 10.88772197 18 9 C16.3964462 8.92337 14.79208865 8.86301928 13.1875 8.8125 C8.53384295 8.42188913 8.53384295 8.42188913 6.23046875 6.6015625 C4.875 4.9375 4.875 4.9375 3 2 C1.68 2.33 0.36 2.66 -1 3 C-0.67 2.01 -0.34 1.02 0 0 Z " fill="#E9E9E9" transform="translate(262,62)"/>
<path d="M0 0 C0.33 0.99 0.66 1.98 1 3 C2.7834963 8.15327536 5.81498684 11.90613189 9.125 16.18359375 C12.70039416 21.55413373 13.23776794 26.44514855 13.36328125 32.73046875 C13.81289475 35.1917402 13.81289475 35.1917402 16.12890625 36.671875 C19.25191507 38.11653214 22.31537299 39.12287026 25.625 40.0625 C29.26649707 41.09995168 31.8359523 41.89063487 35 44 C35.3125 47.5 35.3125 47.5 35 51 C32.27893306 53.72106694 30.15223689 53.60655572 26.375 54.125 C24.59222656 54.37636719 24.59222656 54.37636719 22.7734375 54.6328125 C21.85820312 54.75398438 20.94296875 54.87515625 20 55 C20.06683278 57.44499723 20.06683278 57.44499723 21 60 C23.4867758 61.44235526 23.4867758 61.44235526 26.5 62.25 C31.96992481 63.96992481 31.96992481 63.96992481 33 65 C33.125 68.5 33.125 68.5 33 72 C31.12175109 73.87824891 27.96064724 73.39102397 25.4375 73.5625 C24.23996094 73.64628906 23.04242188 73.73007812 21.80859375 73.81640625 C20.88175781 73.87699219 19.95492188 73.93757813 19 74 C19.33 73.34 19.66 72.68 20 72 C22.50390625 71.5859375 22.50390625 71.5859375 25.5625 71.375 C27.08037109 71.26285156 27.08037109 71.26285156 28.62890625 71.1484375 C29.41136719 71.09945312 30.19382812 71.05046875 31 71 C31 69.35 31 67.7 31 66 C29.82630859 65.58427734 29.82630859 65.58427734 28.62890625 65.16015625 C27.61699219 64.79792969 26.60507812 64.43570313 25.5625 64.0625 C24.55316406 63.70285156 23.54382813 63.34320313 22.50390625 62.97265625 C20 62 20 62 19 61 C18.875 57.5 18.875 57.5 19 54 C20.71349285 52.28650715 23.10564155 52.38813769 25.4375 52 C29.34682538 51.39444481 29.34682538 51.39444481 33 50 C32.90790769 47.55454329 32.90790769 47.55454329 32 45 C29.68637468 43.5885608 29.68637468 43.5885608 26.8125 42.8125 C25.81863281 42.49023438 24.82476562 42.16796875 23.80078125 41.8359375 C22.87652344 41.56007812 21.95226562 41.28421875 21 41 C14.36595722 38.98609416 14.36595722 38.98609416 12 36 C11.62890625 33.8359375 11.62890625 33.8359375 11.5625 31.375 C10.8284546 21.98193753 6.40882955 15.82219021 0.51171875 8.67578125 C-1.38590339 5.31694103 -0.99823909 3.64597486 0 0 Z " fill="#E4E4E4" transform="translate(425,185)"/>
<path d="M0 0 C0.2165625 0.515625 0.433125 1.03125 0.65625 1.5625 C2.55995201 5.0157269 5.02370827 7.94142779 7.5 11 C15.28480754 20.61534368 15.28480754 20.61534368 15.3125 28 C15.33763672 29.546875 15.33763672 29.546875 15.36328125 31.125 C14.9525919 34.37518664 14.36603434 35.75120159 12 38 C9.16431142 38.66259654 6.95760774 38.28167693 4 38 C3.34 37.34 2.68 36.68 2 36 C0.700625 36.061875 -0.59875 36.12375 -1.9375 36.1875 C-4.08984375 36.23828125 -4.08984375 36.23828125 -6 36 C-8.49731202 33.34660598 -8.92588731 31.51878885 -9.4375 27.9375 C-8.89238567 24.27744665 -7.56023822 23.56023822 -5 21 C-4.19234122 17.35278304 -4.19234122 17.35278304 -4 14 C-3.67 14 -3.34 14 -3 14 C-2.64455892 19.33161623 -2.64455892 19.33161623 -3 22 C-4.31328657 23.35308313 -5.64499081 24.68870078 -7 26 C-6.85205998 29.6985004 -6.64194427 31.35805573 -4 34 C-2.35 33.34 -0.7 32.68 1 32 C1.53625 32.66 2.0725 33.32 2.625 34 C4.89958592 36.31024799 4.89958592 36.31024799 8.25 36.25 C9.1575 36.1675 10.065 36.085 11 36 C13.49673245 32.25490133 13.73152007 28.33521895 13 24 C10.50792034 17.56695715 6.0956707 12.47421529 1.57421875 7.359375 C-0.2382255 4.64295731 -0.33464139 3.19894479 0 0 Z " fill="#E8E8E8" transform="translate(330,360)"/>
<path d="M0 0 C3.015625 0.55859375 3.015625 0.55859375 5.375 2.13671875 C7.55653613 5.35708161 7.41975478 7.45534926 7.265625 11.30859375 C7.22953125 12.4790625 7.1934375 13.64953125 7.15625 14.85546875 C7.08664063 16.19351563 7.08664063 16.19351563 7.015625 17.55859375 C6.685625 17.55859375 6.355625 17.55859375 6.015625 17.55859375 C6.00144531 16.72714844 5.98726562 15.89570312 5.97265625 15.0390625 C5.92496094 13.95238281 5.87726563 12.86570312 5.828125 11.74609375 C5.79332031 10.66714844 5.75851563 9.58820312 5.72265625 8.4765625 C5.29000316 5.36802612 5.29000316 5.36802612 2.58984375 3.671875 C0.17711698 2.42627946 0.17711698 2.42627946 -1.984375 2.55859375 C-6.1461615 9.44255507 -8.975411 15.53906954 -9.984375 23.55859375 C-11.984375 20.55859375 -11.984375 20.55859375 -11.98828125 18.68359375 C-10.5996686 11.99859123 -7.42733519 1.39019494 0 0 Z " fill="#E9E9E9" transform="translate(232.984375,34.44140625)"/>
<path d="M0 0 C2.92287492 4.38431239 3.45193591 6.66715629 3 12 C0.80921352 16.28199176 -1.78582705 17.42610923 -6.125 19 C-6.99382812 19.268125 -7.86265625 19.53625 -8.7578125 19.8125 C-11.24353373 20.84998147 -11.24353373 20.84998147 -12.3046875 23.625 C-12.53414063 24.40875 -12.76359375 25.1925 -13 26 C-14.5625 24.75 -14.5625 24.75 -16 23 C-15.58984375 20.890625 -15.58984375 20.890625 -15 19 C-14.24074219 18.79503906 -13.48148437 18.59007812 -12.69921875 18.37890625 C-11.70535156 18.10949219 -10.71148437 17.84007812 -9.6875 17.5625 C-8.70136719 17.29566406 -7.71523437 17.02882812 -6.69921875 16.75390625 C-2.58250637 15.8572046 -2.58250637 15.8572046 0.25 13.0625 C1.34186507 8.60405097 0.64701035 4.50284228 0 0 Z " fill="#D0D0D0" transform="translate(101,224)"/>
<path d="M0 0 C0.33 0.99 0.66 1.98 1 3 C0 4 0 4 -3.81640625 4.09765625 C-5.39846682 4.09098089 -6.98051159 4.07901875 -8.5625 4.0625 C-9.36880859 4.05798828 -10.17511719 4.05347656 -11.00585938 4.04882812 C-13.00393756 4.03700518 -15.00197783 4.01906914 -17 4 C-17.99 7.465 -17.99 7.465 -19 11 C-20.3542168 7.34361463 -19.51496224 5.48672608 -18 2 C-16.86820312 2.02320313 -15.73640625 2.04640625 -14.5703125 2.0703125 C-13.08854825 2.08906901 -11.60677688 2.10726934 -10.125 2.125 C-9.00544922 2.15013672 -9.00544922 2.15013672 -7.86328125 2.17578125 C-5.90805539 2.1933959 -3.95257979 2.10320189 -2 2 C-1.34 1.34 -0.68 0.68 0 0 Z " fill="#EAEAEA" transform="translate(465,283)"/>
<path d="M0 0 C0.33 0.99 0.66 1.98 1 3 C-1.54687901 5.18303915 -3.55232719 6.84738427 -6.75 7.9375 C-7.4925 8.288125 -8.235 8.63875 -9 9 C-9.89386164 11.54775306 -9.89386164 11.54775306 -10 14 C-10.33 14 -10.66 14 -11 14 C-11.33 12.02 -11.66 10.04 -12 8 C-11.38511719 7.67386719 -10.77023438 7.34773438 -10.13671875 7.01171875 C-8.92435547 6.35623047 -8.92435547 6.35623047 -7.6875 5.6875 C-6.88699219 5.25824219 -6.08648437 4.82898438 -5.26171875 4.38671875 C-3.16212728 3.09940446 -1.64552279 1.81593292 0 0 Z " fill="#D6D6D6" transform="translate(140,95)"/>
<path d="M0 0 C1.87874037 1.87874037 1.42280258 5.12330978 1.62109375 7.67578125 C2.01965177 10.12054437 2.78741987 11.85466592 4 14 C3.01 13.67 2.02 13.34 1 13 C0.34 9.7 -0.32 6.4 -1 3 C-4.28976808 1.90341064 -5.71303767 2.20046862 -9 3 C-5.94805196 0.2871573 -4.08353283 -0.44146301 0 0 Z " fill="#DEDEDE" transform="translate(406,144)"/>
<path d="M0 0 C0.66 0.33 1.32 0.66 2 1 C1.54625 1.78375 1.0925 2.5675 0.625 3.375 C-1.37432349 7.83502931 -2.19413664 12.20274285 -3 17 C-5 14 -5 14 -4.86328125 11.9140625 C-3.79222591 7.46272613 -2.69329518 3.79509776 0 0 Z " fill="#D6D6D6" transform="translate(226,41)"/>
<path d="M0 0 C3.3125 -0.3125 3.3125 -0.3125 7 0 C9 2.3125 9 2.3125 10 5 C9.67 5.99 9.34 6.98 9 8 C8.443125 7.01 7.88625 6.02 7.3125 5 C5.34311033 1.71893347 5.34311033 1.71893347 2.25 1.625 C1.13625 1.810625 1.13625 1.810625 0 2 C0 1.34 0 0.68 0 0 Z " fill="#F9F9F9" transform="translate(321,84)"/>
<path d="M0 0 C3.16717283 1.58358642 4.73268318 2.45263699 6.3125 5.6875 C6.539375 6.450625 6.76625 7.21375 7 8 C3.64379729 6.61122646 1.92701272 5.08322035 0 2 C0 1.34 0 0.68 0 0 Z " fill="#B2B2B2" transform="translate(141,308)"/>
</svg>
